<svg xmlns="http://www.w3.org/2000/svg" viewBox="0 0 2400 1400"><g fill="#111"><path d="M0 1387c0-5 23-64 51-130 28-67 64-151 79-187 22-54 31-65 50-65 21 0 31 18 92 170 38 94 73 180 78 191 5 12 7 24 5 25-2 2-26 2-53 1l-49-4-17-54-17-54h-58c-65 0-73 6-91 67-10 34-18 42-41 45-16 3-29 0-29-5zm200-151c0-2-6-19-14-37-7-19-16-43-21-54-6-18-9-15-25 20-29 64-26 75 20 75 22 0 40-2 40-4zm508 110c-24-28-78-88-120-133l-78-82v259h-50v-378l30-4c26-4 37 2 72 41 23 25 78 84 121 131l79 85-3-128-4-127h58l-6 107c-4 58-7 143-7 188 0 80-1 83-25 87-20 4-32-4-67-46zm236 40c-2-6-3-95-2-196l3-185 105 1c152 1 203 21 241 96 48 94 3 223-96 276-38 20-244 26-251 8zm220-61c35-32 46-65 46-133 0-93-39-140-123-149l-46-5-3 156-3 156h51c40 0 57-5 78-25zm259 60c-2-6-2-93-1-194l3-183h105l105-1 3 28 4 27-64-4-63-3-3 59-3 59 65-5 66-6v59l-62-2-63-3v129l63-3 62-4v57h-106c-64 0-108-4-111-10zm329 5c-18-8-21-15-16-37 12-56 13-56 43-24 34 37 79 41 106 11 30-33 13-64-57-102-83-45-109-90-87-152 21-59 69-89 136-84 68 6 85 20 71 60l-11 30-24-26c-26-28-59-33-87-13-31 23-16 58 39 94 85 53 104 72 111 108 8 47-22 105-67 127-36 19-119 23-157 8zm315 1l-27-6 28-60c16-33 52-120 82-192 46-116 56-133 76-133s29 16 73 128c27 70 61 154 75 187s26 65 26 70c0 11-87 12-98 1-4-4-14-28-23-54l-16-47-61-3-61-3-22 61c-12 33-22 59-23 59 0-1-13-4-29-8zm174-173c-5-13-16-39-24-58l-16-35-14 35c-33 80-33 80 17 80 43 0 45-1 37-22zM390 911c0-11 87-86 150-128 80-54 168-93 293-130 111-32 136-36 282-40 98-3 189-1 235 6 224 35 451 140 569 265 39 40 34 47-9 16-50-36-193-99-292-129-135-42-280-61-453-61-293 0-500 53-732 186-24 14-43 21-43 15z"/><path d="M1699 695c-62-32-218-86-284-100-25-4-61-42-183-190-135-163-157-185-189-191-20-4-48-3-62 2-15 6-88 84-180 194-85 102-152 177-148 167s55-89 114-175 136-200 171-252C1031 14 1038 7 1108 2c41-3 68 1 90 12 18 9 91 93 181 208 82 106 204 262 270 347 67 85 121 156 121 158 0 5 0 5-71-32z"/><path d="M623 687c5-13 238-314 310-401 26-31 39-38 69-39 41-1 78 21 111 65l19 26-76 95c-42 53-76 98-76 100s53 6 118 9c72 3 128 10 144 19 24 13 15 14-100 15-70 1-156 7-192 14-83 15-269 75-295 94-25 19-39 20-32 3z"/></g></svg>