<svg xmlns="http://www.w3.org/2000/svg" fill="none" viewBox="0 0 119 46"><path fill="#22BCE1" d="M23.653 27.83c-6.198 0-10.332-4.588-10.332-10.783 0-6.194 5.025-11.216 11.223-11.216s11.222 5.022 11.222 11.216a.94.94 0 101.88 0 13.1 13.1 0 00-8.09-12.118 13.122 13.122 0 00-14.297 2.84 13.104 13.104 0 009.285 22.373l.183 1.799c-8.306 0-15.04-6.73-15.04-15.031 0-8.302 6.734-15.031 15.04-15.031a.94.94 0 100-1.879c-9.345 0-16.92 7.57-16.92 16.91 0 9.339 6.996 16.577 16.34 16.577a9.612 9.612 0 01-.309.878c-.125.281-.125.768 0 1.46-7.297.003-13.05-4.158-16.163-10.753a18.824 18.824 0 012.505-20.02.939.939 0 00-1.456-1.145 20.718 20.718 0 00-2.705 21.981c3.42 7.235 10.122 11.855 18.129 11.871l.396 1.926C12.032 39.673 1.892 29.539 1.88 17.035a.939.939 0 10-1.88 0c.013 13.542 10.994 24.516 24.544 24.529l.183 1.925A26.55 26.55 0 013.13 32.342a.959.959 0 00-1.536 1.145c5.336 7.466 15.129 12.254 24.31 12.25-1.48-4.043-2.231-7.01-2.251-8.9-.02-1.913-.02-4.916 0-9.007z"/><path fill="#06066E" fill-rule="evenodd" d="M38.48 36.138c0 5.463-3.998 9.862-9.684 9.862-5.722 0-9.72-4.4-9.72-9.862V18.285h4.878v10.191c1.43-1.503 3.302-2.2 5.502-2.2 4.99 0 9.024 4.437 9.024 9.862zm-4.842.037c0-3.116-2.164-5.426-4.842-5.426-2.678 0-4.842 2.42-4.842 5.426 0 2.933 2.164 5.316 4.842 5.316 2.678 0 4.842-2.31 4.842-5.316zm26.449-.037v9.422H55.5v-1.98c-1.43 1.577-3.484 2.383-5.759 2.383-4.989 0-9.06-4.399-9.06-9.825 0-5.462 3.998-9.935 9.72-9.935 5.686 0 9.685 4.473 9.685 9.935zm-4.842.037c0-3.006-2.165-5.426-4.842-5.426-2.678 0-4.843 2.31-4.843 5.426 0 3.006 2.165 5.316 4.843 5.316 2.677 0 4.842-2.383 4.842-5.316zm18.928-9.862v4.546c-3.081-.55-5.136 1.1-5.136 3.776V45.56h-4.842V34.635c0-5.352 3.705-9.091 9.978-8.322zm12.619 0v4.546c-3.081-.55-5.136 1.1-5.136 3.776V45.56h-4.842V34.635c0-5.352 3.705-9.091 9.978-8.322zm15.334 13.235h5.172c-1.101 3.85-4.439 6.452-9.134 6.452-5.356 0-9.684-4.4-9.684-9.862s4.328-9.935 9.684-9.935c4.548 0 8.363 2.86 9.281 7.919l-13.353 5.61c.954 1.282 2.384 2.015 4.035 2.015 1.578 0 3.192-.696 3.999-2.2zm-9.135-3.666l8.878-3.74c-.881-1.063-2.201-1.686-3.742-1.686-2.788 0-5.025 2.2-5.135 5.426zm17.535 1.76V18.284h4.879V37.64c0 2.677 1.21 3.63 3.595 3.483v4.4c-5.539.586-8.474-2.713-8.474-7.883z" clip-rule="evenodd"/></svg>