<svg xmlns="http://www.w3.org/2000/svg" viewBox="0 0 50 50"><path fill="currentColor" d="M0 8v2h3v3H0v2h50v-2h-3v-3h3V8zm5 2h5v3H5zm7 0h5v3h-5zm7 0h5v3h-5zm7 0h5v3h-5zm7 0h5v3h-5zm7 0h5v3h-5zM0 17v2h1a3 3 0 013 3v13.844c-.29.027-.574.062-.813.062-.605 0-1.148-.093-1.78-.093a1.006 1.006 0 00-.88.496 1.01 1.01 0 000 1.007c.184.313.52.5.88.496.366 0 .984.094 1.78.094 1.504 0 3.688-.449 5.5-1.625 1.817 1.192 3.989 1.625 5.5 1.625 1.504 0 3.688-.449 5.5-1.625 1.817 1.192 3.989 1.625 5.5 1.625 1.504 0 3.688-.449 5.5-1.625 1.817 1.192 3.989 1.625 5.5 1.625 1.504 0 3.688-.449 5.5-1.625 1.817 1.192 3.989 1.625 5.5 1.625.797 0 1.54-.117 2.188-.375.52-.207.77-.793.563-1.312a1.008 1.008 0 00-1.313-.563c-.352.14-.832.25-1.438.25-.347 0-.75-.031-1.187-.093V22a3 3 0 013-3h1v-2h-1c-2.746 0-5 2.254-5 5v13.344a5.782 5.782 0 01-1.656-.907 1.002 1.002 0 00-1.282 0c-.562.458-1.296.797-2.062 1.032V22c0-2.746-2.254-5-5-5H16c-2.746 0-5 2.254-5 5v13.344a5.782 5.782 0 01-1.656-.907.988.988 0 00-.656-.25.998.998 0 00-.626.25c-.562.458-1.296.797-2.062 1.032V22c0-2.746-2.254-5-5-5zm16 2h18a3 3 0 013 3v13.844c-.29.027-.574.062-.813.062-1.32 0-3.546-.414-4.843-1.468a1.002 1.002 0 00-1.282 0c-1.296 1.054-3.554 1.468-4.875 1.468-1.32 0-3.546-.414-4.843-1.468a1.002 1.002 0 00-1.282 0c-1.296 1.054-3.554 1.468-4.875 1.468-.347 0-.75-.031-1.187-.093V22a3 3 0 013-3zM8.594 38.188a.995.995 0 00-.531.25c-1.297 1.054-3.555 1.468-4.876 1.468-.605 0-1.148-.093-1.78-.093a1.006 1.006 0 00-.88.496 1.01 1.01 0 000 1.007c.184.313.52.5.88.496.366 0 .984.094 1.78.094 1.504 0 3.688-.449 5.5-1.625 1.817 1.192 3.989 1.625 5.5 1.625 1.504 0 3.688-.449 5.5-1.625 1.817 1.192 3.989 1.625 5.5 1.625 1.504 0 3.688-.449 5.5-1.625 1.817 1.192 3.989 1.625 5.5 1.625 1.504 0 3.688-.449 5.5-1.625 1.817 1.192 3.989 1.625 5.5 1.625.797 0 1.54-.117 2.188-.375.52-.207.77-.793.563-1.312a1.008 1.008 0 00-1.313-.563c-.352.14-.832.25-1.438.25-1.32 0-3.546-.414-4.843-1.468a1.002 1.002 0 00-1.282 0c-1.296 1.054-3.554 1.468-4.874 1.468-1.32 0-3.547-.414-4.844-1.468a1.002 1.002 0 00-1.282 0c-1.296 1.054-3.554 1.468-4.875 1.468-1.32 0-3.546-.414-4.843-1.468a1.002 1.002 0 00-1.282 0c-1.296 1.054-3.554 1.468-4.875 1.468-1.32 0-3.546-.414-4.843-1.468a.988.988 0 00-.656-.25h-.094z"/></svg>