<svg xmlns="http://www.w3.org/2000/svg" viewBox="0 0 100 100"><path fill="currentColor" fill-rule="evenodd" d="M83.415 31.94a38.237 38.237 0 00-16.34-15.729C65.317 13.6 58.665 4.783 49.143 5.029c-9.789.252-16.145 9.136-18.057 12.215A38.234 38.234 0 0016.64 32c-1.945 1.252-11.836 8.119-11.582 18.193.221 8.733 7.313 14.729 11.025 17.276A38.23 38.23 0 0031.897 83.73c2.307 3.513 8.096 10.805 16.563 11.068 8.854.275 15.307-6.665 17.998-10.184a38.207 38.207 0 0017.734-17.522c3.65-2.487 10.369-8.147 10.625-16.266.319-10.073-8.699-17.031-11.402-18.886zM61.407 13.921a38.04 38.04 0 00-11.363-1.725c-4.688 0-9.178.849-13.326 2.4 3.271-3.436 13.42-12.018 24.689-.675zm2.572 22.411c7.695 7.694 7.695 20.169 0 27.863-7.693 7.694-20.17 7.694-27.863 0s-7.693-20.169 0-27.863c7.694-7.694 20.17-7.694 27.863 0zm-49.917 1.487A38.007 38.007 0 0011.98 50.26c0 3.999.617 7.853 1.762 11.473-3.778-3.977-10.304-13.466.32-23.914zm16.416-18.994L42.11 30.458s-8.574 3.213-12.174 12.714l-11.63-11.633s4.068-7.658 12.172-12.714zM18.646 69.071l11.543-11.545c3.621 9.479 12.176 12.712 12.176 12.712L30.819 81.784c-8.091-5.067-12.173-12.713-12.173-12.713zm19.066 17.211a38.014 38.014 0 0012.332 2.043c3.557 0 7-.489 10.266-1.402-4.123 3.428-13.282 8.809-22.598-.641zm30.838-4.498L56.989 70.223C66.47 66.606 69.7 58.049 69.7 58.049L81.263 69.61C76.198 77.704 68.55 81.784 68.55 81.784zm1.365-39.096S66.696 34.119 57.2 30.514L68.815 18.9s7.658 4.072 12.715 12.174zM86.44 61.435a38.04 38.04 0 001.668-11.174c0-4.292-.711-8.417-2.02-12.266 3.186 3.446 10.446 13.331.352 23.44z" clip-rule="evenodd"/></svg>