<svg xmlns="http://www.w3.org/2000/svg" viewBox="0 0 2800 2000"><path fill="#292224" d="M114 1804c3-9 25-59 48-111 72-160 95-153 182 60 27 66 38 46 34-60l-3-98 95-3c87-3 96-1 113 19 9 12 17 36 17 54 0 50-37 75-111 75h-58l-3 37-3 38-52 2c-45 1-54-2-68-23-13-20-24-24-64-24-41 0-51 4-65 25-19 29-73 37-62 9zm156-91c-1-19-27-60-34-52-9 10-26 49-26 58 0 6 14 11 30 11 22 0 30-5 30-17zm273-35c11-35-5-48-59-48-53 0-54 0-54 30s1 30 54 30c35 0 56-5 59-12zm74 136c-4-4-7-56-7-116v-108h93c108 0 127 11 127 73 0 57-26 74-120 79-44 3-45 4-45 38 0 28-4 36-20 38-12 2-24 0-28-4zm158-134c3-6 3-19 0-31-6-17-14-20-58-17-48 3-52 5-55 31-3 27-2 27 52 27 30 0 58-5 61-10zm72 133c-10-16-2-212 9-223 6-6 18-8 27-4 14 5 17 21 17 95v89h126c3 0 7-39 8-88 1-87 1-87 28-90l27-3-2 113-2 113-117 3c-64 2-118 0-121-5zm289-16c-23-23-26-34-26-95 0-101 14-115 113-115 88 0 120 17 115 62-4 35-39 40-53 9-8-18-19-24-53-26-24-2-50 2-58 9-16 13-19 95-4 119 11 18 101 21 107 4 10-29 29-45 47-38 14 5 17 14 12 38-9 45-19 50-101 54-68 4-76 2-99-21zm209 13c-4-6-2-16 3-23s27-52 48-101c28-64 45-91 62-97 13-5 28-6 34-3 10 7 89 168 102 212 6 19 4 22-17 22-15 0-31-10-41-25-14-21-24-25-65-25s-51 4-65 25c-17 26-50 33-61 15zm155-90c0-15-23-60-30-60s-30 45-30 60c0 6 14 10 30 10 17 0 30-4 30-10zm177 94c-4-4-7-47-7-95v-88l-42-3c-30-2-43-8-43-18 0-13 24-15 143-18l142-3v116c0 115 0 116-22 113s-23-8-26-95l-3-93h-88l-3 93c-3 84-5 92-23 95-12 2-24 0-28-4zm263-6c-37-20-50-95-30-170 13-44 30-52 123-51 95 0 107 13 107 113 0 104-8 114-102 118-46 2-82-2-98-10zm125-38c25-9 26-13 23-72l-3-63h-120l-9 36c-21 83 30 129 109 99zm112 44c-4-4-7-56-7-116v-108h34c31 0 41 8 98 77l63 78 3-77c2-51 7-78 16-81 31-12 37 9 34 119l-3 109-27 3c-23 3-36-8-90-77-35-44-64-78-67-76-2 2-4 37-5 77-1 65-3 73-21 76-12 2-24 0-28-4zm291-5c-21-12-23-51-6-79 10-15 10-22 0-32-18-18-15-83 4-99 10-9 43-13 89-13 80 0 105 12 105 51 0 33-30 42-48 15-12-18-24-22-63-22-41 0-49 3-49 19 0 24 19 31 84 31 63 0 76 11 76 66 0 58-24 74-110 74-36 0-73-5-82-11zm130-38c8-5 12-17 10-27-3-16-14-20-61-22-51-3-57-1-57 17 0 11 8 25 18 30 21 13 72 14 90 2z"/><path fill="#ed2027" d="M320 1507c-149-35-237-125-269-275-15-70-15-677 0-757 30-161 131-256 302-285 100-18 456-8 524 14 139 44 226 168 235 331l3 70-157 3-158 3v-33c-1-56-18-112-41-130-18-16-44-18-183-18-162 0-163 0-187 26l-24 26v736l24 26c24 26 25 26 191 26 197 0 198 0 215-108l11-67 151-3c128-2 152 0 157 13 11 29-13 165-39 219-33 70-106 137-181 166-55 22-76 24-289 26-160 2-247-1-285-9zm912-654l3-668 151-3 151-3 7 32c8 40 8 1272 0 1293-5 14-29 16-160 16h-154l2-667zm727 657c-136-24-235-111-273-240-24-79-24-761 0-840 29-96 81-160 169-203 74-37 148-47 355-47 273 0 379 32 459 141 64 88 66 102 66 534 0 389 0 390-24 450-32 79-106 153-186 185-56 22-74 24-290 26-126 1-251-1-276-6zm421-250c36-19 40-62 40-419 0-309-2-349-17-371-9-14-22-28-27-32-13-9-318-11-341-2-8 4-23 21-33 38-15 27-17 72-20 337-4 316 3 406 35 441 14 16 34 18 180 18 90 0 173-4 183-10z"/></svg>