<svg viewBox="0 0 64 64"><path fill="currentColor" d="M62 14h-1.34a14.003 14.003 0 00-1.812-4.435l.858-.858a.994.994 0 00.001-1.414l-3-3a.999.999 0 00-1.414 0l-.858.858A14.059 14.059 0 0050 3.339V2a1 1 0 00-1-1h-4a1 1 0 00-1 1v1.339c-1.569.345-3.077.96-4.435 1.812l-.858-.858a.999.999 0 00-1.414 0l-3 3a.997.997 0 000 1.414l.858.858A14.024 14.024 0 0033.34 14H32a1 1 0 00-1 1v2h-7V8.858c1.721-.447 3-2 3-3.858 0-2.206-1.794-4-4-4s-4 1.794-4 4c0 1.858 1.279 3.411 3 3.858V17h-2v-5a1 1 0 00-1-1H8.858C8.411 9.28 6.859 8 5 8c-2.206 0-4 1.794-4 4s1.794 4 4 4c1.859 0 3.411-1.28 3.858-3H18v4c-2.206 0-4 1.794-4 4v5a1 1 0 001 1h3v2h-3a1 1 0 00-1 1v1H6v-4.142c1.721-.447 3-2 3-3.858 0-2.206-1.794-4-4-4s-4 1.794-4 4c0 1.858 1.279 3.411 3 3.858V32a1 1 0 001 1h9v5a1 1 0 001 1h3v2h-3a1 1 0 00-1 1v8a1 1 0 001 1h3v2h-3a1 1 0 00-1 1v8a1 1 0 001 1h34a1 1 0 001-1v-8a1 1 0 00-1-1h-3v-2h3a1 1 0 001-1v-8a1 1 0 00-1-1h-3v-2h3a1 1 0 001-1v-7.357a13.987 13.987 0 004.435-1.794l.858.858a.999.999 0 001.414 0l3-3a.997.997 0 000-1.414l-.858-.858A14.024 14.024 0 0060.66 20H62a1 1 0 001-1v-4a1 1 0 00-1-1zM21 5c0-1.103.897-2 2-2s2 .897 2 2-.897 2-2 2-2-.897-2-2zM5 14c-1.103 0-2-.897-2-2s.897-2 2-2 2 .897 2 2-.897 2-2 2zm-2 9c0-1.103.897-2 2-2s2 .897 2 2-.897 2-2 2-2-.897-2-2zm13 0h4v-2h-4c0-1.103.897-2 2-2h28c1.103 0 2 .897 2 2h-4v2h4v2H16zm30-6h-7c0-4.411 3.589-8 8-8s8 3.589 8 8a7.947 7.947 0 01-5 7.418V21c0-2.206-1.794-4-4-4zM20 27h24v2H20zm28 30h-4v2h4v2H16v-2h4v-2h-4v-2h32zm-4-4H20v-2h24zm4-8h-4v2h4v2H16v-2h4v-2h-4v-2h32zm-4-4H20v-2h24zm-28-4v-2h4v-2h-4v-2h32v2h-4v2h4v2zm45-19h-1.17a1 1 0 00-.988.847 11.98 11.98 0 01-2.094 5.131 1 1 0 00.105 1.29l.733.732L56 27.586l-.732-.732a.997.997 0 00-1.29-.105 11.992 11.992 0 01-5.131 2.094.967.967 0 00-.387.158H46v-2h3a.98.98 0 00.779-.4A9.937 9.937 0 0057 17c0-5.514-4.486-10-10-10s-10 4.486-10 10h-4v-1h1.17a1 1 0 00.988-.847 11.98 11.98 0 012.094-5.131 1 1 0 00-.105-1.29L36.414 8 38 6.414l.732.732a.998.998 0 001.29.105 11.992 11.992 0 015.131-2.094.998.998 0 00.847-.988V3h2v1.169c0 .493.359.913.847.988 1.846.286 3.62 1.01 5.131 2.094a1 1 0 001.29-.105L56 6.414 57.586 8l-.732.732a.998.998 0 00-.105 1.29 11.98 11.98 0 012.094 5.131.998.998 0 00.987.847H61z"/></svg>