<svg viewBox="0 0 1250 900"><clipPath id="a"><circle cx="614.907" cy="217.018" r="95.07"/></clipPath><clipPath id="b"><circle cx="614.907" cy="217.018" r="95.07"/></clipPath><clipPath id="c"><circle cx="614.907" cy="217.018" r="95.07"/></clipPath><clipPath id="d"><circle cx="614.907" cy="217.018" r="95.07"/></clipPath><clipPath id="e"><path d="M0 0h500v500H0z"/></clipPath><clipPath id="f"><circle cx="614.907" cy="217.018" r="95.07"/></clipPath><path fill="#fff" d="M625.003 618.203h555.902v154.42H625.003z"/><path fill="#fff" stroke="#fff" stroke-width=".05" d="M150.223 524.466l56.442 93.279H93.781z" transform="matrix(0 -1.36795 -.65734 0 1586.976 900.91)"/><path fill="#fff" d="M95.355 127.167h533.96v155.044H95.354z"/><circle cx="713.332" cy="453.113" r="296.296" fill="none" stroke="#000" stroke-width="208.31" transform="matrix(.8285 0 0 .82284 34.002 77.162)"/><circle cx="624.998" cy="449.998" r="245.069" fill="none" stroke="#fff" stroke-width="155"/><g transform="translate(-291.067 -90.24) scale(1.35901)"><circle cx="614.907" cy="217.018" r="95.07" fill="#c2f4fe"/><g clip-path="url(#a)"><path d="M580.462 174.603a1.84 1.84 0 00-1.495 1.84v79.113c0 1.013.827 1.84 1.84 1.84h36.51c3.866 2.314 8.343 3.68 13.166 3.68 6.446 0 12.325-2.401 16.846-6.325l11.844 11.844 2.587-2.587-11.844-11.844c3.924-4.521 6.324-10.4 6.324-16.846 0-8.732-4.377-16.437-11.039-21.1v-37.775c0-1.013-.826-1.84-1.84-1.84zm2.185 3.68h58.875v33.807c-3.357-1.603-7.08-2.53-11.04-2.53a25.638 25.638 0 00-15.925 5.52h-19.031v3.68h15.236a25.778 25.778 0 00-4.312 7.358h-10.924v3.68h9.832c-.396 1.783-.633 3.615-.633 5.52 0 .625.014 1.229.058 1.84h-9.257v3.68h9.774a25.787 25.787 0 007.13 12.878h-29.783zm12.879 14.719v3.68h34.957v-3.68zm0 11.039v3.68h34.957v-3.68zm34.957 9.199c4.362 0 8.423 1.222 11.844 3.392.057.043.115.079.172.115a22.083 22.083 0 0110.062 18.57c0 12.218-9.86 22.079-22.078 22.079-4.435 0-8.56-1.265-12.017-3.507a22.083 22.083 0 01-10.061-18.571c0-12.218 9.86-22.078 22.078-22.078zm-14.719 11.039a15.582 15.582 0 00-2.76 5.52h26.678v-5.52zm-3.335 14.718c.367 2.027 1.15 3.867 2.07 5.52h25.183v-5.52z"/></g><circle cx="614.907" cy="217.018" r="95.07" fill="none" stroke="#000" stroke-width="6.25"/></g><g transform="translate(-672.434 -90.24) scale(1.35901)"><circle cx="614.907" cy="217.018" r="95.07" fill="#c2f4fe"/><g clip-path="url(#b)"><path d="M614.899 172.827a18.045 18.045 0 00-18.074 18.074c0 3.566 1.017 6.849 2.768 9.602-6.432-1.334-14.664-2.372-24.456-2.372h-.17a1.8 1.8 0 00-1.638 1.807v12.99c-2.09.756-3.614 2.747-3.614 5.084v7.23c0 2.972 2.45 5.422 5.422 5.422h1.807a7.225 7.225 0 007.23-7.23v-3.615a7.225 7.225 0 00-7.23-7.23v-10.73c22.48.345 34.863 5.994 36.148 6.608v49.646c-5.288-3.07-17.813-8.874-36.148-9.263v-16.379h-3.615v18.074a1.81 1.81 0 001.808 1.807c24.145 0 37.644 9.687 38.52 10.336.084.085.183.163.282.226h.056c.141.078.297.134.452.17h.057a.856.856 0 00.113.056h.226c.113.014.226.014.338 0 .24-.05.473-.141.678-.282a.854.854 0 00.113-.057.964.964 0 00.17-.17c1.01-.74 14.508-10.279 38.52-10.279a1.81 1.81 0 001.807-1.807V232.47h-3.615v16.38c-18.335.388-30.86 6.191-36.148 9.262v-49.646c1.285-.614 13.669-6.263 36.148-6.608v10.73a7.225 7.225 0 00-7.23 7.23v3.615a7.225 7.225 0 007.23 7.23h1.807c2.973 0 5.423-2.45 5.423-5.422v-7.23c0-2.337-1.525-4.328-3.615-5.083v-12.99a1.81 1.81 0 00-1.808-1.808c-9.82 0-18.073 1.03-24.512 2.372 1.779-2.803 2.824-6.107 2.824-9.602a18.045 18.045 0 00-18.074-18.073zm0 3.615c8.07 0 14.459 6.39 14.459 14.46 0 4.468-2.069 8.64-5.366 11.182-.02.008-.035.05-.056.057-4.575 1.27-7.703 2.407-9.037 2.993-1.334-.586-4.462-1.722-9.037-2.993-.021-.014-.035-.042-.056-.057-3.319-2.562-5.366-6.509-5.366-11.183 0-8.07 6.39-14.459 14.459-14.459zm-39.762 39.763h1.807c2.153 0 3.615 1.461 3.615 3.614v3.615c0 2.153-1.462 3.615-3.615 3.615h-1.807a1.802 1.802 0 01-1.808-1.807v-7.23c0-1.003.805-1.807 1.808-1.807zm77.717 0h1.807c1.003 0 1.808.804 1.808 1.807v7.23a1.802 1.802 0 01-1.808 1.807h-1.807c-2.153 0-3.615-1.462-3.615-3.615v-3.615c0-2.153 1.462-3.614 3.615-3.614z"/></g><circle cx="614.907" cy="217.018" r="95.07" fill="none" stroke="#000" stroke-width="6.25"/></g><g transform="translate(41.065 79.114) scale(1.35901)"><circle cx="614.907" cy="217.018" r="95.07" fill="#c2f4fe"/><g clip-path="url(#c)"><path d="M617.634 173.756c-25.681 0-46.612 17.994-46.612 40.524 0 13.07 7.156 24.455 18.16 31.888-.016.436.016 1.148-.554 3.27-.713 2.636-2.153 6.341-5.067 10.52l-2.074 2.97h3.626c12.54 0 19.8-8.178 20.923-9.492a50.333 50.333 0 0011.598 1.353c25.673 0 46.612-17.994 46.612-40.516 0-22.523-20.93-40.517-46.612-40.517zm0 4.053c23.465 0 42.56 16.356 42.56 36.471 0 20.108-19.095 36.464-42.56 36.464-3.586 0-7.077-.412-10.671-1.25l-2.407-.563-1.6 1.868c-1.385 1.623-6.048 6.39-13.726 7.727 1.472-2.644 2.58-5.336 3.3-8.035.57-2.09.674-3.19.697-4.157l.095-2.256-1.876-1.266c-10.402-7.038-16.371-17.44-16.371-28.532 0-20.115 19.094-36.471 42.559-36.471zm0 15.398c-4.053 0-7.291 1.219-9.524 3.657-2.43 2.43-3.443 5.668-3.65 9.516h5.067c.206-2.225.61-4.251 1.212-5.463 1.219-2.232 3.451-3.451 6.697-3.451 2.43 0 4.45.61 5.463 2.026 1.013 1.22 1.63 2.842 1.63 4.663 0 1.417-.411 2.636-1.219 3.855-.404.808-1.013 1.418-1.623 2.027l-2.224 2.225c-2.233 2.232-3.65 4.053-4.26 5.676-.609 1.623-1.013 3.847-1.013 6.484h5.067c0-2.43.198-4.054.807-5.067.61-1.22 1.83-2.636 3.65-4.457 2.636-2.43 4.26-4.26 5.066-5.478.808-1.212 1.212-2.834 1.212-4.861 0-3.246-1.212-6.08-3.436-8.107-2.232-2.232-5.272-3.245-8.922-3.245zm-3.444 35.877v5.874h5.47v-5.874z"/></g><circle cx="614.907" cy="217.018" r="95.07" fill="none" stroke="#000" stroke-width="6.25"/></g><g transform="translate(213.874 400.483) scale(1.35901)"><circle cx="614.907" cy="217.018" r="95.07" fill="#c2f4fe"/><g clip-path="url(#d)"><g clip-path="url(#e)" transform="translate(569.689 176.073) scale(.18768)"><path d="M275.938 29.688A33.202 33.202 0 00270 30c-.195.039-.43-.039-.625 0l-102.5 10.938c-.547.078-1.055.156-1.562.312-7.422 2.109-15.352 4.727-22.188 9.688-6.758 4.882-12.344 14.296-10.937 24.375.039.156.273.156.312.312.781 4.961 3.477 8.867 6.563 11.25 3.164 2.461 6.562 3.945 10 5 6.523 2.031 13.046 2.734 19.062 2.188.273-.04.664.039.938 0l94.375-2.188 28.75 22.5-71.875 50.313L220 165c-11.562 8.398-21.992 17.422-27.5 30s-4.375 28.203 4.688 44.063c.195.234.39.429.625.625l60.312 88.75c-9.414.117-15.391 0-32.187.312-26.563.508-54.219.977-65 2.188-9.883 1.171-18.047 4.492-23.75 10-5.704 5.507-8.125 13.007-8.125 20 0 6.718 2.187 14.296 7.812 20.312s14.336 9.688 25 9.688h47.5c-15.898 16.289-37.617 38.906-49.062 52.5-6.836 7.968-11.407 16.054-12.813 24.687s1.016 17.773 6.875 24.375c.273.352.586.664.938.938 6.328 5.625 16.25 8.437 25.312 5.937 9.063-2.5 17.578-8.32 28.125-17.812 9.336-8.243 32.344-31.094 53.75-52.5 19.922-19.922 35.43-35.704 37.813-38.125h22.812c12.578 0 23.906-3.868 30.625-12.813 6.641-8.867 6.094-21.641 0-32.812V345c-4.922-9.18-21.602-35.391-37.812-60.937-13.516-21.29-22.266-34.766-26.25-40.938 7.148-4.57 31.015-19.766 55-35L350 238.75c.234.781.547 1.484.938 2.188 1.64 3.828 3.32 7.812 6.875 11.562 3.554 3.75 9.101 6.758 15 7.5.625.078 1.25.078 1.875 0 0 0 70.234-4.062 83.437-4.062h.625c8.867-.547 16.914-2.11 24.063-5.938 7.148-3.828 13.242-11.055 14.062-20v-.312c.313-5.235-.273-10.313-2.812-14.688-2.54-4.375-6.797-7.07-10.625-8.437-7.696-2.696-14.297-2.032-20.625-2.5h-.313l-51.25-2.813-4.375-47.187c-.156-1.797-.82-3.516-1.875-5-.586-5.235-2.305-10.586-5.312-15.938-7.461-13.867-23.868-38.477-24.688-39.687-.391-.821-.312-.43-.625-.938-1.211-1.953-2.383-2.461-3.125-3.125-.937-.82-1.875-1.875-3.125-2.812-2.461-1.915-5.625-4.219-9.375-6.875-7.539-5.352-17.227-11.915-26.875-18.438a3637.323 3637.323 0 00-37.5-25c-.312-.234-.625-.391-.937-.625-5.313-3.906-11.485-5.742-17.5-5.937zM445 30c-30.352 0-55 24.648-55 55s24.648 55 55 55 55-24.648 55-55-24.648-55-55-55zM272.188 50h.312c3.867-.664 6.797-.195 9.375 1.875.195.234.391.43.625.625 0 0 18.945 12.344 38.125 25.313 9.609 6.484 19.258 12.968 26.563 18.125 3.632 2.578 6.679 4.96 8.75 6.562 1.054.781 1.796 1.523 2.187 1.875.195.156-.234-.937-.312-.937 0 0 18.046 27.578 24.375 39.375 3.554 6.328 3.632 9.804 2.812 12.5-.82 2.695-3.32 5.468-7.5 8.125-2.812 1.796-16.523 10.507-27.5 17.5a10.015 10.015 0 00-6.25 4.062c-31.875 20.313-73.125 46.563-73.125 46.563-4.648 2.929-6.055 9.101-3.125 13.75 0 0 15.313 23.789 31.563 49.375 16.25 25.585 34.023 54.062 37.187 60V355c3.75 6.758 2.773 9.219 1.25 11.25s-5.937 4.688-14.375 4.688h-84.687a10.02 10.02 0 00-5.625-.938 9.165 9.165 0 00-2.813.938h-68.125c-6.328 0-8.672-1.68-10.312-3.438-1.641-1.758-2.5-4.297-2.5-6.562 0-3.008.351-4.141 1.875-5.625 1.523-1.485 5.078-3.555 12.187-4.375 7.227-.821 36.992-1.68 63.438-2.188 26.445-.508 50.625-.625 50.625-.625a9.903 9.903 0 008.71-5.391c1.719-3.242 1.485-7.187-.585-10.234l-70.625-103.437c-.079-.118.078-.196 0-.313l-.313-.312c-6.484-11.68-6.367-18.555-3.437-25.313 2.968-6.836 10.625-14.336 20.937-21.875l82.813-58.125a9.959 9.959 0 004.257-7.812c.157-3.125-1.211-6.133-3.632-8.125l-42.188-33.125a10.052 10.052 0 00-6.25-2.188l-99.062 2.188h-.938c-2.773.312-8.203-.118-11.875-1.25-1.406-.43-2.187-.899-2.812-1.25-.157-1.758.117-2.422 2.812-4.375 3.086-2.266 8.906-4.375 15.313-6.25.156-.04.156-.274.312-.313zM445 50c19.648 0 35 15.352 35 35s-15.352 35-35 35-35-15.352-35-35 15.352-35 35-35zM8.125 120c-5.039 1.055-8.438 5.742-7.969 10.82.469 5.118 4.727 9.063 9.844 9.18h190a10.08 10.08 0 0010-4.531 10.089 10.089 0 000-10.938A10.08 10.08 0 00200 120H10a15.039 15.039 0 00-1.875 0zm0 50c-5.039 1.055-8.438 5.742-7.969 10.82.469 5.118 4.727 9.063 9.844 9.18h140a10.08 10.08 0 0010-4.531 10.089 10.089 0 000-10.938A10.08 10.08 0 00150 170H10a15.039 15.039 0 00-1.875 0zm381.25 9.688l2.813 32.187c.468 4.922 4.453 8.789 9.375 9.063l59.687 3.125h.313c7.46.507 13.789.703 15.312 1.25-.039-.04.156.625 0 3.125-.195 1.718-.547 2.5-3.437 4.062-3.008 1.602-8.555 2.93-15.313 3.438h-.625c-16.992.039-79.336 3.906-82.187 4.062-.196-.039-.157.039-.313 0-1.602-.234-1.875-.586-2.5-1.25-.547-.586-1.836-2.305-2.812-4.375l-6.563-37.812c9.102-5.782 22.695-14.571 25.313-16.25.312-.196.625-.43.937-.625zM8.125 220c-5.039 1.055-8.438 5.742-7.969 10.82.469 5.118 4.727 9.063 9.844 9.18h140a10.08 10.08 0 0010-4.531 10.089 10.089 0 000-10.938A10.08 10.08 0 00150 220H10a15.039 15.039 0 00-1.875 0zm0 50c-5.039 1.055-8.438 5.742-7.969 10.82.469 5.118 4.727 9.063 9.844 9.18h180a10.08 10.08 0 0010-4.531 10.089 10.089 0 000-10.938A10.08 10.08 0 00190 270H10a15.039 15.039 0 00-1.875 0zm229.063 120.938h34.687c-7.539 7.617-10.977 11.289-23.437 23.75-21.329 21.328-45.469 45.117-53.125 51.875-9.454 8.515-16.329 12.421-20 13.437-3.516.977-3.907.508-6.25-1.562-1.524-2.032-2.071-3.711-1.563-6.875.586-3.633 2.93-8.946 8.125-15 13.945-16.563 55.117-59.024 61.563-65.625z"/></g></g><circle cx="614.907" cy="217.018" r="95.07" fill="none" stroke="#000" stroke-width="6.25"/></g><g transform="translate(-326.426 389.133) scale(1.3588)"><circle cx="614.907" cy="217.018" r="95.07" fill="#c2f4fe"/><g clip-path="url(#f)"><path d="M610.858 172.474a2.028 2.028 0 00-2.025 2.024v15.692l-10.124 20.248v-3.544a2.03 2.03 0 00-2.025-2.025h-26.321a2.05 2.05 0 00-1.52.697 2.004 2.004 0 00-.505 1.581l6.074 48.594a2.04 2.04 0 002.025 1.772h20.247a2.024 2.024 0 002.025-2.025v-2.025h2.341a6.125 6.125 0 005.758 4.05h38.47c4.469 0 8.1-3.63 8.1-8.099 0-1.669-.53-3.203-1.393-4.492 3.156-1.108 5.442-4.129 5.442-7.657 0-1.985-.712-3.78-1.898-5.188a8.133 8.133 0 003.922-6.96c0-1.985-.711-3.78-1.898-5.188a8.133 8.133 0 003.923-6.96c0-4.47-3.63-8.1-8.099-8.1h-29.612c1.234-3.907 3.29-10.898 3.29-14.173 0-7.624-5.583-18.222-11.072-18.222zm2.024 4.049h3.1c1.86 0 7.024 7.047 7.024 14.173 0 3.172-2.831 12.315-3.923 15.566a2.02 2.02 0 00.253 1.835c.38.53.997.822 1.645.822h32.396c2.23 0 4.05 1.819 4.05 4.05 0 2.23-1.82 4.049-4.05 4.049h-2.024a2.019 2.019 0 00-2.025 2.025c0 1.123.901 2.024 2.024 2.024 2.231 0 4.05 1.82 4.05 4.05s-1.819 4.05-4.05 4.05h-2.024a2.019 2.019 0 00-2.025 2.024 2.02 2.02 0 002.025 2.025c2.23 0 4.05 1.819 4.05 4.05 0 2.23-1.82 4.049-4.05 4.049h-4.05a2.019 2.019 0 00-2.025 2.025 2.02 2.02 0 002.025 2.025c2.23 0 4.05 1.819 4.05 4.049s-1.82 4.05-4.05 4.05h-38.47a2.029 2.029 0 01-2.025-2.025c0-1.123-.91-2.025-2.025-2.025h-4.049v-34.42h1.012c.768 0 1.487-.452 1.835-1.14l11.137-22.272c.142-.277.19-.57.19-.886v-14.173zm-40.242 32.396h22.02v44.544h-16.452zm14.933 34.42a3.038 3.038 0 10.002 6.077 3.038 3.038 0 00-.002-6.076z"/></g><circle cx="614.907" cy="217.018" r="95.07" fill="none" stroke="#000" stroke-width="6.26"/></g><path fill="#fff" d="M991.085 873.16v3.144H975.62v-22.55h15.174v3.143H979.19v6.416h10.045v2.956H979.19v6.892h11.896zm6.662-19.406l6.265 8.893 6.265-8.893h3.913l-8.275 11.434 8.01 11.116h-3.912l-6.001-8.576-6 8.576h-3.94l8.037-11.116-8.301-11.434zm36.031 19.406v3.144h-15.464v-22.55h15.174v3.143h-11.632v6.416h10.072v2.956h-10.072v6.892h11.922zm3.358-8.29c0-1.356.238-2.704.74-4.05a10.975 10.975 0 015.578-6.21c1.375-.655 2.908-.983 4.6-.983 2.062 0 3.833.455 5.287 1.367 1.454.91 2.564 2.094 3.304 3.556l-2.802 1.874c-.317-.677-.687-1.25-1.137-1.716a5.63 5.63 0 00-1.454-1.11 6.349 6.349 0 00-1.665-.59 8.241 8.241 0 00-1.64-.174c-1.189 0-2.246.238-3.118.716a6.86 6.86 0 00-2.247 1.89 8.55 8.55 0 00-1.375 2.636 10.21 10.21 0 00-.45 2.921c0 1.103.186 2.15.556 3.146a7.96 7.96 0 001.506 2.636 7.22 7.22 0 002.3 1.826c.873.455 1.85.682 2.908.682.555 0 1.11-.068 1.692-.206a6.267 6.267 0 001.692-.666c.555-.31 1.031-.695 1.507-1.16.45-.466.82-1.026 1.11-1.684l2.96 1.684a7.012 7.012 0 01-1.532 2.239 8.883 8.883 0 01-2.22 1.636c-.82.444-1.693.782-2.618 1.015s-1.824.349-2.723.349c-1.586 0-3.014-.338-4.335-1.015a11.356 11.356 0 01-3.41-2.652 12.23 12.23 0 01-2.221-3.716 11.815 11.815 0 01-.793-4.24zm34.154 8.386c1.19 0 2.168-.233 2.935-.698a5.554 5.554 0 001.903-1.827 7.39 7.39 0 001.005-2.572 13.86 13.86 0 00.317-2.971v-11.434h3.595v11.434c0 1.546-.185 3.003-.555 4.367-.37 1.366-.925 2.561-1.718 3.59-.767 1.025-1.798 1.837-3.014 2.43-1.242.591-2.75.887-4.467.887-1.798 0-3.331-.312-4.574-.936a8.168 8.168 0 01-2.987-2.508c-.767-1.05-1.322-2.25-1.665-3.606a18.462 18.462 0 01-.503-4.224v-11.434h3.57v11.434c0 1.038.078 2.038.29 3.003a7.978 7.978 0 001.03 2.572c.45.75 1.085 1.353 1.904 1.81.793.455 1.771.683 2.935.683zm32.622-16.359h-7.508v19.407h-3.595v-19.407h-7.534v-3.143h18.637zm20.065 16.263v3.144h-15.465v-22.55h15.174v3.143h-11.632v6.416h10.072v2.956h-10.072v6.892h11.923zM5.955 31.519c0-1.638.277-3.272.865-4.896a13.447 13.447 0 012.597-4.377c1.143-1.295 2.528-2.337 4.155-3.13 1.662-.793 3.498-1.191 5.575-1.191 2.493 0 4.605.55 6.371 1.651s3.117 2.535 4.017 4.3l-3.394 2.265c-.38-.817-.83-1.51-1.385-2.074a6.748 6.748 0 00-1.765-1.343 7.502 7.502 0 00-2.009-.71 9.832 9.832 0 00-1.973-.211c-1.455 0-2.701.287-3.775.865a8.322 8.322 0 00-2.7 2.282 10.522 10.522 0 00-1.662 3.19 11.39 11.39 0 00-.554 3.531c0 1.333.207 2.6.657 3.802a9.688 9.688 0 001.836 3.189 8.727 8.727 0 002.77 2.206c1.073.55 2.25.827 3.531.827a8.77 8.77 0 002.043-.25 7.504 7.504 0 002.043-.806 8.047 8.047 0 001.8-1.402c.555-.565 1.005-1.243 1.386-2.036l3.566 2.036a9.127 9.127 0 01-1.835 2.707c-.796.78-1.697 1.44-2.7 1.978a13.505 13.505 0 01-3.186 1.229c-1.108.28-2.182.422-3.255.422-1.94 0-3.67-.408-5.263-1.229-1.593-.82-2.978-1.887-4.12-3.206a15.36 15.36 0 01-2.701-4.495 14.59 14.59 0 01-.935-5.124zm40.962 14.016c-1.94 0-3.705-.391-5.332-1.174-1.593-.779-2.978-1.814-4.12-3.109a14.116 14.116 0 01-2.667-4.436 14.44 14.44 0 01-.935-5.107c0-1.818.346-3.556 1.004-5.221.658-1.662 1.558-3.138 2.736-4.415a13.352 13.352 0 014.155-3.054c1.592-.755 3.324-1.132 5.228-1.132 1.94 0 3.74.401 5.333 1.208 1.592.807 2.977 1.863 4.085 3.168a14.434 14.434 0 012.667 4.436c.623 1.651.934 3.334.934 5.048 0 1.818-.311 3.56-.97 5.225a14.514 14.514 0 01-2.735 4.394c-1.177 1.268-2.596 2.279-4.19 3.037-1.592.755-3.323 1.132-5.193 1.132zM38.226 31.71c0 1.281.208 2.524.623 3.726a10.175 10.175 0 001.766 3.189c.727.92 1.662 1.655 2.735 2.206 1.074.55 2.286.827 3.602.827 1.385 0 2.596-.29 3.67-.866a8.29 8.29 0 002.7-2.285 9.836 9.836 0 001.697-3.185c.381-1.178.589-2.383.589-3.612a11.29 11.29 0 00-.623-3.743 9.927 9.927 0 00-1.766-3.147c-.727-.911-1.662-1.642-2.701-2.189-1.073-.55-2.25-.827-3.566-.827-1.385 0-2.597.287-3.67.865-1.074.575-2.01 1.323-2.736 2.244-.762.925-1.316 1.98-1.697 3.168a10.941 10.941 0 00-.623 3.63zm32.444-5.569v19.2h-4.293V18.077h3.393l15.581 19.66V18.115h4.329v27.226h-3.567zm47.091-4.262h-9.072V45.34h-4.328V21.88h-9.107v-3.802h22.507v3.802zm24.273 19.661v3.801h-18.698V18.077h18.351v3.802H127.63v7.756h12.189v3.573H127.63v8.331h14.405zm8.067-23.463l7.549 10.755 7.583-10.755h4.709l-9.972 13.826 9.66 13.438h-4.709l-7.271-10.367-7.237 10.367h-4.778l9.73-13.438-10.042-13.826zm44.841 3.802h-9.072V45.34h-4.328V21.88h-9.107v-3.802h22.507v3.802zm16.932 19.778c1.454 0 2.631-.284 3.566-.845a6.384 6.384 0 002.285-2.209c.59-.907 1.005-1.946 1.247-3.11a17.59 17.59 0 00.346-3.59V18.077h4.363v13.826c0 1.866-.242 3.629-.658 5.28-.45 1.652-1.142 3.096-2.077 4.339-.935 1.24-2.182 2.22-3.67 2.936-1.49.717-3.29 1.077-5.402 1.077-2.182 0-4.017-.377-5.506-1.132-1.489-.758-2.7-1.77-3.635-3.037a12.29 12.29 0 01-1.974-4.356 20.697 20.697 0 01-.623-5.107V18.077h4.293v13.826c0 1.253.139 2.462.381 3.629.242 1.163.623 2.202 1.212 3.11a6.576 6.576 0 002.32 2.188c.935.55 2.147.827 3.532.827zm26.316-23.58h3.773l10.734 27.264h-4.536l-2.873-7.41H234.76l-2.839 7.41h-4.57l10.837-27.264zm6.267 16.665l-4.398-11.71-4.536 11.71zm13.538 10.599V18.077h4.294v23.462h14.646v3.802zm24.342-27.264h4.3v27.264h-4.3zm10.492 23.964l16.55-20.162h-16.17v-3.802H314.4v3.303l-16.17 20.16h16.205v3.801H292.83v-3.3zm46.641-.501v3.801h-18.698V18.077h18.351v3.802H325.1v7.756h12.153v3.573H325.1v8.331h14.37zm579.674 143.717v27.264h-4.328v-12.018H901.07v12.018h-4.294v-27.264h4.294v11.406h13.746v-11.406zm10.076 0l7.514 13.67 7.618-13.67h4.709l-10.18 17.51v9.754h-4.294v-9.83l-10.11-17.434zm25.139 27.264v-27.264h11.46a7.6 7.6 0 013.394.769 8.919 8.919 0 012.666 2.015 9.663 9.663 0 011.731 2.843 8.84 8.84 0 01.624 3.244c0 1.153-.173 2.261-.589 3.32a8.766 8.766 0 01-1.662 2.843 8.358 8.358 0 01-2.597 1.998c-1.004.499-2.112.748-3.359.748h-7.375v9.484zm4.293-13.286h7.098c.624 0 1.178-.128 1.697-.384a3.838 3.838 0 001.281-1.073 5.73 5.73 0 00.831-1.614 6.327 6.327 0 00.312-2.036c0-.769-.104-1.458-.346-2.074-.243-.613-.554-1.146-.97-1.593a4.455 4.455 0 00-1.385-1.035 3.795 3.795 0 00-1.627-.367h-6.89v10.176zm32.895 13.48c-1.974 0-3.74-.391-5.333-1.174-1.593-.779-2.978-1.814-4.12-3.109-1.178-1.292-2.043-2.77-2.666-4.436-.624-1.662-.97-3.365-.97-5.107 0-1.818.346-3.556 1.004-5.221.693-1.662 1.593-3.138 2.77-4.415 1.143-1.281 2.528-2.3 4.12-3.054 1.628-.755 3.36-1.132 5.264-1.132 1.939 0 3.705.401 5.298 1.208a13.165 13.165 0 014.12 3.168c1.143 1.306 2.008 2.784 2.666 4.436.623 1.651.935 3.334.935 5.048 0 1.818-.346 3.56-1.004 5.225a13.28 13.28 0 01-2.736 4.394 13.579 13.579 0 01-4.155 3.037c-1.592.755-3.324 1.132-5.193 1.132zm-8.692-13.826c0 1.281.208 2.524.624 3.726.415 1.205.97 2.264 1.731 3.189a8.594 8.594 0 002.735 2.206c1.108.55 2.286.827 3.636.827 1.385 0 2.597-.29 3.67-.866a9.07 9.07 0 002.701-2.285c.727-.945 1.281-2.008 1.697-3.185a11.65 11.65 0 00.554-3.612 11.29 11.29 0 00-.623-3.743 9.227 9.227 0 00-1.732-3.147 8.637 8.637 0 00-2.735-2.189c-1.039-.55-2.25-.827-3.532-.827-1.385 0-2.631.287-3.705.865a8.519 8.519 0 00-2.7 2.244c-.762.925-1.316 1.98-1.732 3.168-.38 1.191-.589 2.4-.589 3.63zm46.884-9.83h-9.072v23.462h-4.328V189.06h-9.107v-3.802h22.507v3.802zm27.943-3.802v27.264h-4.329v-12.018h-13.746v12.018h-4.294v-27.264h4.294v11.406h13.746v-11.406zm26.765 23.463v3.801h-18.698v-27.264h18.352v3.802h-14.023v7.756h12.153v3.573h-12.153v8.331h14.37zm21.953-17.05c-.277-.28-.658-.582-1.143-.9a10.427 10.427 0 00-1.696-.904 12.988 12.988 0 00-2.147-.69c-.797-.18-1.593-.27-2.39-.27-1.834 0-3.15.333-4.016.998s-1.281 1.59-1.281 2.766c0 .665.138 1.209.38 1.631.278.423.693.793 1.247 1.115.589.319 1.282.6 2.113.845.865.242 1.835.506 2.977.786 1.385.332 2.632.703 3.74 1.115 1.108.409 2.043.907 2.805 1.496a5.782 5.782 0 011.8 2.17c.416.856.623 1.902.623 3.131 0 1.382-.242 2.573-.761 3.57-.554.997-1.247 1.81-2.182 2.438-.9.626-1.939 1.087-3.15 1.381a16.32 16.32 0 01-3.879.443 19.47 19.47 0 01-6.025-.941c-1.904-.627-3.67-1.541-5.228-2.746l1.939-3.684c.346.332.83.702 1.454 1.111.623.412 1.35.79 2.182 1.132.83.347 1.73.64 2.735.883.97.246 1.974.367 3.012.367 1.697 0 3.013-.294 3.913-.883.935-.588 1.385-1.46 1.385-2.61 0-.693-.173-1.268-.52-1.728-.345-.464-.83-.866-1.488-1.212-.623-.346-1.42-.658-2.32-.939a84.171 84.171 0 00-3.151-.886 34.768 34.768 0 01-3.566-1.132c-1.005-.395-1.836-.876-2.493-1.44a5.361 5.361 0 01-1.524-1.978c-.346-.755-.52-1.669-.52-2.746 0-1.33.243-2.513.762-3.549a7.548 7.548 0 012.113-2.614c.865-.703 1.904-1.233 3.116-1.593 1.212-.356 2.493-.536 3.913-.536 1.835 0 3.531.294 5.124.883 1.558.588 2.909 1.319 4.086 2.188zm9.245-6.413h4.3v27.264h-4.3zm10.492 23.964l16.55-20.162h-16.17v-3.802h21.191v3.303l-16.17 20.16h16.205v3.801h-21.606zm46.64-.501v3.801h-18.697v-27.264h18.351v3.802h-14.058v7.756h12.188v3.573h-12.188v8.331h14.404zM465.835 18.317h3.774l10.768 27.264h-4.536l-2.908-7.41H462.44l-2.84 7.41h-4.57l10.804-27.264zm6.267 16.665l-4.363-11.71-4.536 11.71zm17.867-8.601v19.2h-4.294V18.317h3.359l15.581 19.66V18.355h4.363v27.226h-3.566zm35.075-8.064h3.775l10.768 27.264h-4.536l-2.874-7.41h-10.526l-2.84 7.41h-4.57zm6.268 16.665l-4.363-11.71-4.536 11.71zm13.573 10.599V18.317h4.294v23.462h14.612v3.802zm21.675-27.264l7.55 13.67 7.582-13.67h4.744l-10.18 17.51v9.754h-4.294v-9.83l-10.11-17.434h4.709zm23.27 23.964l16.55-20.162h-16.17v-3.802h21.226v3.303l-16.17 20.16h16.204v3.801h-21.64zm46.675-.501v3.801h-18.698V18.317h18.351v3.802H622.1v7.756h12.154v3.573H622.1v8.331h14.405zM209.887 697.65v-27.262h11.442c1.215 0 2.365.255 3.388.767a8.48 8.48 0 012.685 2.017 9.456 9.456 0 011.726 2.84 8.257 8.257 0 01.64 3.245c0 1.154-.193 2.26-.576 3.324-.416 1.061-.959 2.007-1.694 2.841a7.851 7.851 0 01-2.589 1.995c-.99.502-2.11.75-3.356.75h-7.351v9.484h-4.315zm4.315-13.286h7.095c.608 0 1.151-.127 1.662-.383a3.63 3.63 0 001.279-1.074c.383-.46.639-1 .863-1.614a6.798 6.798 0 00.287-2.036c0-.767-.095-1.457-.351-2.071a5.118 5.118 0 00-.927-1.595 4.628 4.628 0 00-1.406-1.036 3.92 3.92 0 00-1.63-.367h-6.872zm21.542 13.286v-27.262h11.858c1.214 0 2.365.255 3.387.767 1.055.511 1.918 1.186 2.685 2.017a9.456 9.456 0 011.726 2.84 8.257 8.257 0 01.64 3.245c0 .924-.128 1.806-.384 2.65a8.662 8.662 0 01-1.087 2.342 7.726 7.726 0 01-1.662 1.864 7.048 7.048 0 01-2.205 1.17l6.424 10.368h-4.89l-5.913-9.483h-6.296v9.483h-4.283zm4.283-13.286h7.543c.607 0 1.15-.134 1.662-.402.479-.269.927-.64 1.278-1.113.352-.473.64-1.02.863-1.633a6.527 6.527 0 00.288-1.959c0-.69-.128-1.342-.352-1.956a6.218 6.218 0 00-.959-1.614c-.415-.46-.863-.825-1.406-1.093a3.423 3.423 0 00-1.63-.406h-7.287zm34.326 13.479c-1.95 0-3.707-.39-5.305-1.17a13.244 13.244 0 01-4.123-3.11 14.356 14.356 0 01-2.685-4.436c-.607-1.666-.927-3.366-.927-5.108 0-1.818.32-3.557.99-5.222.672-1.662 1.567-3.136 2.75-4.417a12.721 12.721 0 014.154-3.053c1.599-.754 3.324-1.131 5.242-1.131s3.708.403 5.306 1.208a13.623 13.623 0 014.123 3.17 14.469 14.469 0 012.62 4.434c.64 1.652.96 3.333.96 5.05 0 1.818-.32 3.557-.991 5.222a13.49 13.49 0 01-2.749 4.398 13.529 13.529 0 01-4.155 3.033c-1.598.754-3.324 1.132-5.21 1.132zm-8.661-13.824c0 1.282.192 2.522.607 3.727.416 1.202.99 2.263 1.758 3.186.735.921 1.662 1.656 2.717 2.209 1.086.55 2.3.825 3.611.825 1.407 0 2.621-.288 3.676-.863a8.717 8.717 0 002.717-2.286c.735-.949 1.31-2.01 1.693-3.19.384-1.176.576-2.377.576-3.608 0-1.304-.224-2.553-.607-3.742a10.449 10.449 0 00-1.758-3.149 8.636 8.636 0 00-2.749-2.189c-1.055-.553-2.237-.828-3.548-.828-1.374 0-2.589.288-3.675.866a8.503 8.503 0 00-2.717 2.247c-.735.92-1.31 1.975-1.726 3.168a11.758 11.758 0 00-.575 3.627zm28.861-13.631l8.214 21.848 8.182-21.848h4.57l-10.898 27.263h-3.676l-10.963-27.263h4.57zm44.937 23.462v3.8h-18.697v-27.262h18.346v3.8h-14.063v7.757h12.177v3.573h-12.177v8.333h14.415z"/></svg>