<svg xmlns="http://www.w3.org/2000/svg" viewBox="0 0 264.42 90.72"><path fill="#185a7d" d="M218.65 73.17h7.36l9.75-15.64-4.12-7h-9.46l-8.99 14.08zm-16.3-22.64h-9.45l-4.13 7.01 9.74 15.63h18.27zm44.4-7.28l17.61 29.86.04.06h-17.72l-.04-.06-9-15.28zM236.74 56.3l-23.62-40.11 8.83-14.99 23.9 40.51zm27.68 18.34h-44.83l9.61 15.09h26.38zM220.67.48H203l-18.67 31.64H202zm-37.21 33.11l-23.92 40.55 8.85 15.1 32.78-55.65zm34.23 41.05h.02l9.62 15.09h-57.52l8.88-15.09h39.02m13.06-25.58l-8.86-15.04h-19.29l-8.86 15.04zm.41-45.27a3.63 3.63 0 117.25 0 3.63 3.63 0 11-7.25 0zm6.48 0a2.86 2.86 0 10-5.71 0 2.86 2.86 0 105.71 0zm-4.25-2h1.46c.81 0 1.5.32 1.5 1.25a1.12 1.12 0 01-.71 1l.89 1.6h-.89l-.66-1.3h-.79v1.35h-.79zm1.29 1.94c.52 0 .83-.23.83-.65s-.21-.64-.79-.64h-.54v1.29zM0 2A1.16 1.16 0 011.31.66h45.36A1.16 1.16 0 0148 2v11.64A1.16 1.16 0 0146.67 15H18.35a.7.7 0 00-.79.79v20.66a.7.7 0 00.79.78H44.7a1.16 1.16 0 011.3 1.32v10.87a1.16 1.16 0 01-1.31 1.32H18.35a.7.7 0 00-.79.78v22.94a.7.7 0 00.79.79h30.41a1.16 1.16 0 011.31 1.31v11.93a1.16 1.16 0 01-1.31 1.31H1.31A1.16 1.16 0 010 88.49zm67.32 87.8A1.16 1.16 0 0166 88.49V2A1.16 1.16 0 0167.32.66h14.81A1.16 1.16 0 0183.44 2v86.49a1.16 1.16 0 01-1.31 1.31zM147.36 16c-1.23-.26-2.65-.53-4.26-.79s-3.3-.46-5-.59-3.52-.24-5.31-.33-3.39-.13-4.78-.13q-5.91 0-8.26 2.1t-2.36 7.08a12.5 12.5 0 00.46 3.54 9.21 9.21 0 002.09 3.41 39.23 39.23 0 004.72 4.26c2.06 1.61 4.79 3.65 8.2 6.09q4 2.89 7.21 5.57a33.22 33.22 0 015.31 5.71 21.69 21.69 0 013.21 6.61 30.85 30.85 0 011 8.47q0 12.72-6.49 18.22t-18.94 5.51A130.81 130.81 0 01109.8 90a85.54 85.54 0 01-10.29-1.63c-.78-.09-1.18-.44-1.18-1l.92-11.8a.81.81 0 01.92-.92q5 .91 10 1.38t10.16.46c3.94 0 6.75-.66 8.46-2s2.55-3.8 2.55-7.47a14.18 14.18 0 00-.39-3.41 10.23 10.23 0 00-2.16-3.73 46.09 46.09 0 00-5.51-5.38q-3.73-3.21-10.42-8.32a51.05 51.05 0 01-6.81-6 27.46 27.46 0 01-4.13-5.57 18.4 18.4 0 01-2-5.7 36.31 36.31 0 01-.52-6.36 28.34 28.34 0 011.84-10.94 15.63 15.63 0 015.44-6.95 23.1 23.1 0 019-3.61 66.36 66.36 0 0112.45-1c1.83 0 3.78.06 5.83.19s4 .33 5.9.59 3.56.55 5.05.85a17.91 17.91 0 013.41 1 1.29 1.29 0 01.65 1.18l-.79 11.4a.69.69 0 01-.82.74zm5.51-14.51V.57H157v.92h-1.49v4.06h-1.1V1.49zm6.19-.92L160.23 4l1.1-3.42h1.55v5h-1V2l-1.22 3.53h-.85l-1.22-3.5v3.5h-1v-5z"/></svg>