<svg xmlns="http://www.w3.org/2000/svg" viewBox="0 0 96 96"><path fill="currentColor" d="M22.686 76.404c3.471 0 6.295-2.823 6.295-6.294s-2.824-6.294-6.295-6.294-6.295 2.823-6.295 6.294 2.824 6.294 6.295 6.294zm0-9.588c1.817 0 3.295 1.478 3.295 3.294s-1.478 3.294-3.295 3.294-3.295-1.478-3.295-3.294 1.478-3.294 3.295-3.294zm18.605 9.588c3.471 0 6.295-2.823 6.295-6.294s-2.824-6.294-6.295-6.294-6.295 2.823-6.295 6.294 2.824 6.294 6.295 6.294zm0-9.588c1.817 0 3.295 1.478 3.295 3.294s-1.478 3.294-3.295 3.294-3.295-1.478-3.295-3.294 1.478-3.294 3.295-3.294zm18.604 9.588c3.471 0 6.295-2.823 6.295-6.294s-2.824-6.294-6.295-6.294S53.6 66.64 53.6 70.11s2.823 6.294 6.295 6.294zm0-9.588c1.817 0 3.295 1.478 3.295 3.294s-1.479 3.294-3.295 3.294S56.6 71.927 56.6 70.11s1.478-3.294 3.295-3.294z"/><path fill="currentColor" d="M69.089 46.323l-.851-3.121-14.307 6.245V20.209H38.565v24.08L10.491 56.544V92h73.964V20.209H69.089zm-2.832 1.018l2.369 8.685H46.36zM41.565 23.209h9.366v27.547l-6.984 3.049-2.382-8.733zm-2.49 24.132l2.094 7.677-2.309 1.008H19.177zM69.089 89H13.491V59.025h55.598zm3-31.676V23.209h9.366V89h-9.366zM26.465 9.674c2.305 0 3.529-.904 4.513-1.63.82-.606 1.414-1.044 2.73-1.044s1.91.438 2.73 1.044c.984.726 2.208 1.63 4.513 1.63v-3c-1.317 0-1.91-.438-2.73-1.044C37.237 4.904 36.013 4 33.708 4s-3.529.904-4.513 1.63c-.82.606-1.414 1.044-2.73 1.044-1.315 0-1.908-.438-2.727-1.043C22.755 4.904 21.531 4 19.228 4v3c1.315 0 1.908.438 2.728 1.043.982.727 2.206 1.631 4.509 1.631z"/><path fill="currentColor" d="M36.276 10.858c-.983-.727-2.207-1.631-4.511-1.631v3c1.315 0 1.908.438 2.728 1.043.983.727 2.207 1.631 4.51 1.631 2.305 0 3.529-.904 4.513-1.63.82-.606 1.414-1.044 2.73-1.044s1.91.438 2.73 1.044c.383.283.806.591 1.312.864a7.06 7.06 0 00-1.814-.227v3c1.315 0 1.908.438 2.728 1.043.983.727 2.207 1.631 4.51 1.631 2.305 0 3.529-.904 4.513-1.63.82-.606 1.414-1.044 2.73-1.044s1.91.438 2.73 1.044c.984.726 2.208 1.63 4.513 1.63v-3c-1.317 0-1.91-.438-2.73-1.044-.984-.726-2.208-1.63-4.513-1.63s-3.529.904-4.513 1.63c-.82.606-1.414 1.044-2.73 1.044-1.315 0-1.908-.438-2.727-1.043-.383-.283-.807-.593-1.313-.865a7.085 7.085 0 001.817.227v-3c-1.317 0-1.91-.438-2.73-1.044-.984-.726-2.208-1.63-4.513-1.63s-3.529.904-4.513 1.63c-.82.606-1.414 1.044-2.73 1.044-1.315 0-1.907-.437-2.727-1.043zm-11.082 8.725c2.305 0 3.529-.904 4.513-1.63.82-.606 1.414-1.044 2.73-1.044s1.91.438 2.73 1.044c.984.726 2.208 1.63 4.512 1.63v-3c-1.317 0-1.91-.438-2.73-1.044-.984-.726-2.208-1.63-4.513-1.63s-3.529.904-4.513 1.63c-.82.606-1.414 1.044-2.73 1.044-1.315 0-1.908-.438-2.728-1.043-.983-.727-2.207-1.631-4.51-1.631v3c1.315 0 1.908.438 2.727 1.043.985.727 2.208 1.631 4.512 1.631zm31.79-9.909c2.305 0 3.529-.904 4.513-1.63C62.317 7.438 62.911 7 64.228 7s1.91.438 2.73 1.044c.984.726 2.208 1.63 4.513 1.63v-3c-1.317 0-1.91-.438-2.73-1.044C67.756 4.904 66.532 4 64.228 4s-3.529.904-4.513 1.63c-.82.606-1.414 1.044-2.73 1.044-1.315 0-1.908-.438-2.727-1.043C53.274 4.904 52.05 4 49.747 4v3c1.315 0 1.908.438 2.728 1.043.983.727 2.206 1.631 4.509 1.631z"/><path fill="currentColor" d="M66.795 10.858c-.983-.727-2.207-1.631-4.51-1.631v3c1.315 0 1.908.438 2.727 1.043.983.727 2.207 1.631 4.511 1.631 2.305 0 3.529-.904 4.513-1.63.82-.606 1.414-1.044 2.73-1.044s1.91.438 2.73 1.044c.984.726 2.208 1.63 4.513 1.63v-3c-1.317 0-1.91-.438-2.73-1.044-.984-.726-2.208-1.63-4.512-1.63-2.305 0-3.529.904-4.513 1.63-.82.606-1.414 1.044-2.73 1.044s-1.909-.437-2.729-1.043z"/></svg>