<svg xmlns="http://www.w3.org/2000/svg" viewBox="0 0 50 50"><path fill="currentColor" d="M9 4C6.25 4 4 6.25 4 9v32c0 2.75 2.25 5 5 5h32c2.75 0 5-2.25 5-5V9c0-2.75-2.25-5-5-5H9zm0 2h32c1.668 0 3 1.332 3 3v32c0 1.668-1.332 3-3 3H9c-1.668 0-3-1.332-3-3V9c0-1.668 1.332-3 3-3zm14.43 3a1 1 0 00-.98.807l-.846 4.3c-.713.224-1.377.501-1.989.834l-3.648-2.392a1 1 0 00-1.256.13l-2.121 2.128a1 1 0 00-.13 1.252l2.388 3.658c-.332.613-.61 1.279-.832 1.992l-4.198.771a1 1 0 00-.818.985v2.99a1 1 0 00.807.983l4.287.845c.223.716.5 1.385.834 2l-2.387 3.658a1 1 0 00.129 1.252l2.121 2.125a1 1 0 001.256.131l3.648-2.392c.612.333 1.276.612 1.989.836l.843 4.298a1 1 0 00.98.809h2.985a1 1 0 00.98-.807l.846-4.3a11.132 11.132 0 001.989-.834l3.648 2.392a1 1 0 001.256-.13l2.121-2.128a1 1 0 00.129-1.252l-2.387-3.658c.334-.615.61-1.284.834-2l4.285-.846a1 1 0 00.807-.98v-2.992a1 1 0 00-1-1h-.053l-4.199-.828a11.127 11.127 0 00-.832-1.998l2.387-3.66a1 1 0 00-.13-1.252l-2.12-2.125a1 1 0 00-1.258-.131l-3.649 2.392a11.086 11.086 0 00-1.98-.832l-.768-4.21A1 1 0 0026.414 9H23.43zm.822 2h1.328l.713 3.904a1 1 0 00.773.797c.947.203 1.782.616 2.69 1.147a1 1 0 001.053-.028l3.402-2.23.975.976-2.229 3.414a1 1 0 00-.025 1.05c.529.909.94 1.75 1.142 2.699a1 1 0 00.785.771l4.141.816v1.319l-3.982.787a1 1 0 00-.786.771c-.203.95-.614 1.79-1.142 2.7a1 1 0 00.027 1.046l2.227 3.416-.973.977-3.404-2.23a1 1 0 00-1.053-.028c-.906.53-1.743.942-2.69 1.145a1 1 0 00-.77.785L25.67 39h-1.338l-.783-3.996a1 1 0 00-.772-.785c-.946-.203-1.781-.616-2.69-1.147a1 1 0 00-1.052.028l-3.404 2.23-.973-.976 2.227-3.415a1 1 0 00.027-1.048c-.53-.91-.94-1.749-1.142-2.698a1 1 0 00-.786-.773L11 25.635v-1.338l3.893-.715a1 1 0 00.796-.775c.204-.95.614-1.79 1.143-2.7a1 1 0 00-.027-1.046l-2.227-3.416.975-.977 3.402 2.23a1 1 0 001.053.028c.906-.53 1.743-.942 2.69-1.145a1 1 0 00.77-.785L24.253 11zM25 19c-3.295 0-6 2.705-6 6s2.705 6 6 6 6-2.705 6-6-2.705-6-6-6zm0 2c2.205 0 4 1.795 4 4s-1.795 4-4 4-4-1.795-4-4 1.795-4 4-4z"/></svg>