<svg xmlns="http://www.w3.org/2000/svg" xmlns:xlink="http://www.w3.org/1999/xlink" viewBox="0 0 1156 853.866"><linearGradient id="a" x1="331.454" x2="331.454" y1="247.789" y2="152.962" gradientUnits="userSpaceOnUse"><stop offset="0" stop-color="gray" stop-opacity=".25"/><stop offset=".535" stop-color="gray" stop-opacity=".12"/><stop offset="1" stop-color="gray" stop-opacity=".1"/></linearGradient><linearGradient id="b" x1="732.112" x2="732.112" y1="433.301" y2="428.933" xlink:href="#a"/><linearGradient id="c" x1="732.161" x2="732.161" y1="437.845" y2="433.476" xlink:href="#a"/><linearGradient id="d" x1="732.209" x2="732.209" y1="442.388" y2="438.02" xlink:href="#a"/><linearGradient id="e" x1="716.769" x2="716.769" y1="454.503" y2="445.291" xlink:href="#a"/><linearGradient id="f" x1="747.35" x2="747.35" y1="454.59" y2="445.378" xlink:href="#a"/><linearGradient id="g" x1="444.112" x2="444.112" y1="433.301" y2="428.933" xlink:href="#a"/><linearGradient id="h" x1="444.161" x2="444.161" y1="437.845" y2="433.476" xlink:href="#a"/><linearGradient id="i" x1="444.209" x2="444.209" y1="442.388" y2="438.02" xlink:href="#a"/><linearGradient id="j" x1="428.769" x2="428.769" y1="454.503" y2="445.291" xlink:href="#a"/><linearGradient id="k" x1="459.35" x2="459.35" y1="454.59" y2="445.378" xlink:href="#a"/><linearGradient id="l" x1="300.112" x2="300.112" y1="433.301" y2="428.933" xlink:href="#a"/><linearGradient id="m" x1="300.161" x2="300.161" y1="437.845" y2="433.476" xlink:href="#a"/><linearGradient id="n" x1="300.209" x2="300.209" y1="442.388" y2="438.02" xlink:href="#a"/><linearGradient id="o" x1="284.769" x2="284.769" y1="454.503" y2="445.291" xlink:href="#a"/><linearGradient id="p" x1="315.35" x2="315.35" y1="454.59" y2="445.378" xlink:href="#a"/><path fill="#06bce3" d="M671.648 140.78c-74.109-2.84-144.693-29.243-212.093-58.131s-134.162-60.893-206.497-76.2C206.534-3.396 153.33-4.79 115.843 22.739 79.769 49.232 68.113 94.96 61.846 137.392c-4.715 31.924-7.487 65.522 5.432 95.408 8.97 20.75 24.895 38.19 35.908 58.064 38.321 69.154 11.235 154.43-30.293 221.952-19.48 31.674-42.076 61.89-57.108 95.608S-6.201 680.776 6.95 715.171c13.035 34.091 44.101 59.698 77.752 77.709 68.347 36.58 148.887 47.05 227.425 52.979 173.85 13.126 348.63 7.443 522.942 1.751 64.51-2.106 129.303-4.24 192.763-15.25 35.241-6.113 71.625-15.816 97.21-39.24 32.48-29.736 40.53-80.089 18.766-117.375-36.506-62.543-137.44-78.077-162.956-145.197-14.045-36.945.378-78.098 20.789-112.362 43.785-73.505 117.176-137.99 121.042-222.007 2.655-57.704-32.626-115.493-87.177-142.795-57.18-28.618-136.47-25.019-178.653 22.354-43.437 48.78-119.772 67.55-185.206 65.042z" opacity=".1"/><path fill="#2196f3" d="M410.5 562.329s22-7.575 38 0 42 2.525 50-1.515 44 1.515 48 5.554 20 9.09 31 5.05 33-13.13 42-7.574"/><path d="M410.5 562.329s22-7.575 38 0 42 2.525 50-1.515 44 1.515 48 5.554 20 9.09 31 5.05 33-13.13 42-7.574" opacity=".2"/><path fill="#2196f3" d="M331.5 502.962s50.421-15 87.09 0 96.26 5 114.594-3 100.842 3 110.01 11 45.837 18 71.048 10 75.631-26 96.258-15"/><path d="M331.5 502.962s50.421-15 87.09 0 96.26 5 114.594-3 100.842 3 110.01 11 45.837 18 71.048 10 75.631-26 96.258-15" opacity=".2"/><ellipse cx="331.454" cy="200.376" fill="url(#a)" rx="48.046" ry="47.413"/><circle cx="331.454" cy="200.376" r="41.883" fill="#ff9800"/><path fill="#06bce3" d="M128.5 448.962h879v17h-879z"/><path fill="#06bce3" d="M557 391.933h6v68h-6zM225.075 204.933h6v255h-6zM906.075 204.933h6v255h-6z"/><path fill="none" stroke="#06bce3" stroke-miterlimit="10" stroke-width="2" d="M909 206.462c-351 476-682 0-682 0"/><path fill="none" stroke="#06bce3" stroke-miterlimit="10" d="M532.53 414.752v34.21M604.5 418.018v30.944M459.85 395.073v53.89M390.355 359.787v89.175M319.138 306.462v142.5M677.235 399.96v49.002M751.553 362.462v86M821.83 306.462v142.5M281.484 270.612v178.35M856.797 270.612v178.35M355.345 335.82v112.642M426.826 380.31v68.652M490.301 405.462v43M643.525 410.065v38.897M713.248 384.46v64.502M783.447 339.626v108.836"/><path fill="#2196f3" d="M330.5 599.329s9.053-7.575 15.636 0 17.283 2.525 20.575-1.515 18.105 1.515 19.75 5.554 8.23 9.09 12.757 5.05 13.579-13.13 17.282-7.574"/><path d="M330.5 599.329s9.053-7.575 15.636 0 17.283 2.525 20.575-1.515 18.105 1.515 19.75 5.554 8.23 9.09 12.757 5.05 13.579-13.13 17.282-7.574" opacity=".2"/><path fill="#2196f3" d="M170.5 526.329s9.053-7.575 15.636 0 17.283 2.525 20.575-1.515 18.105 1.515 19.75 5.554 8.23 9.09 12.757 5.05 13.579-13.13 17.282-7.574"/><path d="M170.5 526.329s9.053-7.575 15.636 0 17.283 2.525 20.575-1.515 18.105 1.515 19.75 5.554 8.23 9.09 12.757 5.05 13.579-13.13 17.282-7.574" opacity=".2"/><path fill="#2196f3" d="M76.5 613.329s9.053-7.575 15.636 0 17.283 2.525 20.575-1.515 18.105 1.515 19.75 5.554 8.23 9.09 12.757 5.05 13.579-13.13 17.282-7.574"/><path d="M76.5 613.329s9.053-7.575 15.636 0 17.283 2.525 20.575-1.515 18.105 1.515 19.75 5.554 8.23 9.09 12.757 5.05 13.579-13.13 17.282-7.574" opacity=".2"/><path fill="#2196f3" d="M802.5 539.329s9.053-7.575 15.636 0 17.283 2.525 20.575-1.515 18.105 1.515 19.75 5.554 8.23 9.09 12.757 5.05 13.579-13.13 17.282-7.574"/><path d="M802.5 539.329s9.053-7.575 15.636 0 17.283 2.525 20.575-1.515 18.105 1.515 19.75 5.554 8.23 9.09 12.757 5.05 13.579-13.13 17.282-7.574" opacity=".2"/><path fill="#2196f3" d="M947.5 668.329s9.053-7.575 15.636 0 17.283 2.525 20.575-1.515 18.105 1.515 19.75 5.554 8.23 9.09 12.757 5.05 13.579-13.13 17.282-7.574"/><path d="M947.5 668.329s9.053-7.575 15.636 0 17.283 2.525 20.575-1.515 18.105 1.515 19.75 5.554 8.23 9.09 12.757 5.05 13.579-13.13 17.282-7.574" opacity=".2"/><path fill="#2196f3" d="M225.5 675.329s31.263-7.575 54 0 59.684 2.525 71.053-1.515 62.526 1.515 68.21 5.554 28.421 9.09 44.053 5.05 46.895-13.13 59.684-7.574M132.5 748.57s31.263-8.118 54 0 59.684 2.706 71.053-1.623 62.526 1.623 68.21 5.953 28.421 9.741 44.053 5.412 46.895-14.071 59.684-8.118M470.5 762.329s13.158-7.575 22.727 0 25.12 2.525 29.905-1.515 26.315 1.515 28.708 5.554 11.961 9.09 18.54 5.05 19.737-13.13 25.12-7.574M832.5 727.329s13.158-7.575 22.727 0 25.12 2.525 29.905-1.515 26.315 1.515 28.708 5.554 11.961 9.09 18.54 5.05 19.737-13.13 25.12-7.574M595.5 668.329s13.158-7.575 22.727 0 25.12 2.525 29.905-1.515 26.315 1.515 28.708 5.554 11.961 9.09 18.54 5.05 19.737-13.13 25.12-7.574M650.5 774.329s13.158-7.575 22.727 0 25.12 2.525 29.905-1.515 26.315 1.515 28.708 5.554 11.961 9.09 18.54 5.05 19.737-13.13 25.12-7.574M753.5 620.329s16.632-7.575 28.727 0 31.751 2.525 37.8-1.515 33.262 1.515 36.286 5.554 15.12 9.09 23.436 5.05 24.947-13.13 31.751-7.574"/><path d="M753.5 620.329s16.632-7.575 28.727 0 31.751 2.525 37.8-1.515 33.262 1.515 36.286 5.554 15.12 9.09 23.436 5.05 24.947-13.13 31.751-7.574" opacity=".2"/><rect width="2.303" height="14.394" x="716.215" y="430.321" fill="#06bce3" rx="1.151"/><rect width="2.303" height="13.818" x="745.642" y="430.321" fill="#06bce3" rx="1.151"/><rect width="39.386" height="4.369" x="712.419" y="428.933" fill="url(#b)" rx="2.184"/><rect width="39.386" height="4.369" x="712.468" y="433.476" fill="url(#c)" rx="2.184"/><rect width="39.386" height="4.369" x="712.516" y="438.02" fill="url(#d)" rx="2.184"/><rect width="38.575" height="3.455" x="712.825" y="429.17" fill="#ccc" rx="1.727"/><rect width="38.575" height="3.455" x="712.825" y="433.776" fill="#ccc" rx="1.727"/><rect width="38.575" height="3.455" x="712.825" y="438.382" fill="#ccc" rx="1.727"/><rect width="38.575" height="3.455" x="712.825" y="442.412" fill="#06bce3" rx="1.727"/><circle cx="717.367" cy="430.897" r=".576" fill="#06bce3"/><circle cx="717.367" cy="435.503" r=".576" fill="#06bce3"/><circle cx="717.367" cy="440.109" r=".576" fill="#06bce3"/><circle cx="746.794" cy="440.109" r=".576" fill="#06bce3"/><circle cx="746.794" cy="435.503" r=".576" fill="#06bce3"/><circle cx="746.794" cy="430.897" r=".576" fill="#06bce3"/><rect width="1.747" height="9.212" x="715.896" y="445.291" fill="url(#e)" rx=".874"/><rect width="1.747" height="9.212" x="746.476" y="445.378" fill="url(#f)" rx=".874"/><rect width="1.151" height="9.212" x="716.215" y="445.291" fill="#06bce3" rx=".576"/><rect width="1.151" height="9.212" x="746.794" y="445.291" fill="#06bce3" rx=".576"/><rect width="2.303" height="14.394" x="428.215" y="430.321" fill="#06bce3" rx="1.151"/><rect width="2.303" height="13.818" x="457.642" y="430.321" fill="#06bce3" rx="1.151"/><rect width="39.386" height="4.369" x="424.419" y="428.933" fill="url(#g)" rx="2.184"/><rect width="39.386" height="4.369" x="424.468" y="433.476" fill="url(#h)" rx="2.184"/><rect width="39.386" height="4.369" x="424.516" y="438.02" fill="url(#i)" rx="2.184"/><rect width="38.575" height="3.455" x="424.825" y="429.17" fill="#ccc" rx="1.727"/><rect width="38.575" height="3.455" x="424.825" y="433.776" fill="#ccc" rx="1.727"/><rect width="38.575" height="3.455" x="424.825" y="438.382" fill="#ccc" rx="1.727"/><rect width="38.575" height="3.455" x="424.825" y="442.412" fill="#06bce3" rx="1.727"/><circle cx="429.367" cy="430.897" r=".576" fill="#06bce3"/><circle cx="429.367" cy="435.503" r=".576" fill="#06bce3"/><circle cx="429.367" cy="440.109" r=".576" fill="#06bce3"/><circle cx="458.794" cy="440.109" r=".576" fill="#06bce3"/><circle cx="458.794" cy="435.503" r=".576" fill="#06bce3"/><circle cx="458.794" cy="430.897" r=".576" fill="#06bce3"/><rect width="1.747" height="9.212" x="427.896" y="445.291" fill="url(#j)" rx=".874"/><rect width="1.747" height="9.212" x="458.476" y="445.378" fill="url(#k)" rx=".874"/><rect width="1.151" height="9.212" x="428.215" y="445.291" fill="#06bce3" rx=".576"/><rect width="1.151" height="9.212" x="458.794" y="445.291" fill="#06bce3" rx=".576"/><rect width="2.303" height="14.394" x="284.215" y="430.321" fill="#06bce3" rx="1.151"/><rect width="2.303" height="13.818" x="313.642" y="430.321" fill="#06bce3" rx="1.151"/><rect width="39.386" height="4.369" x="280.419" y="428.933" fill="url(#l)" rx="2.184"/><rect width="39.386" height="4.369" x="280.468" y="433.476" fill="url(#m)" rx="2.184"/><rect width="39.386" height="4.369" x="280.516" y="438.02" fill="url(#n)" rx="2.184"/><rect width="38.575" height="3.455" x="280.825" y="429.17" fill="#ccc" rx="1.727"/><rect width="38.575" height="3.455" x="280.825" y="433.776" fill="#ccc" rx="1.727"/><rect width="38.575" height="3.455" x="280.825" y="438.382" fill="#ccc" rx="1.727"/><rect width="38.575" height="3.455" x="280.825" y="442.412" fill="#06bce3" rx="1.727"/><circle cx="285.367" cy="430.897" r=".576" fill="#06bce3"/><circle cx="285.367" cy="435.503" r=".576" fill="#06bce3"/><circle cx="285.367" cy="440.109" r=".576" fill="#06bce3"/><circle cx="314.794" cy="440.109" r=".576" fill="#06bce3"/><circle cx="314.794" cy="435.503" r=".576" fill="#06bce3"/><circle cx="314.794" cy="430.897" r=".576" fill="#06bce3"/><rect width="1.747" height="9.212" x="283.896" y="445.291" fill="url(#o)" rx=".874"/><rect width="1.747" height="9.212" x="314.476" y="445.378" fill="url(#p)" rx=".874"/><rect width="1.151" height="9.212" x="284.215" y="445.291" fill="#06bce3" rx=".576"/><rect width="1.151" height="9.212" x="314.794" y="445.291" fill="#06bce3" rx=".576"/><path fill="#06bce3" d="M560.5 185.933h-3.55a2.499 2.499 0 00-2.45-3h-78a2.5 2.5 0 000 5h3.55a2.499 2.499 0 002.45 3h-13a2.5 2.5 0 000 5h78a2.5 2.5 0 000-5h13a2.5 2.5 0 000-5zM957.5 145.933h-3.55a2.499 2.499 0 00-2.45-3h-78a2.5 2.5 0 000 5h3.55a2.499 2.499 0 002.45 3h-13a2.5 2.5 0 000 5h78a2.5 2.5 0 100-5h13a2.5 2.5 0 100-5zM777.5 266.933h-3.55a2.499 2.499 0 00-2.45-3h-78a2.5 2.5 0 000 5h3.55a2.499 2.499 0 002.45 3h-13a2.5 2.5 0 000 5h78a2.5 2.5 0 100-5h13a2.5 2.5 0 100-5z" opacity=".1"/></svg>