<svg xmlns="http://www.w3.org/2000/svg" viewBox="0 0 100 100"><circle cx="34.9" cy="20.5" r="8.1" fill="currentColor"/><path fill="currentColor" d="M44.7 64.8c-3.1-1.8-5.2-5.2-5.2-9.1 0-5.3 4-9.8 9.2-10.5v-.4c0-7.6-6.2-13.7-13.7-13.7-3.9 0-7.4 1.6-9.9 4.3 3.3 1.8 5.5 5.3 5.5 9.3 0 3.9-2.1 7.2-5.2 9.1C31.6 56 36.2 62 36.2 69.1v2.6c0-.1.1-.1.1-.2 1.9-3 4.9-5.4 8.4-6.7z"/><circle cx="65.1" cy="20.5" r="8.1" fill="currentColor"/><path fill="currentColor" d="M74.7 53.8c-3.1-1.8-5.2-5.2-5.2-9.1 0-4 2.2-7.5 5.5-9.3-2.5-2.6-6-4.3-9.9-4.3-7.6 0-13.7 6.2-13.7 13.7v.3c5.2.6 9.3 5.1 9.3 10.5 0 3.9-2.1 7.2-5.2 9.1 3.5 1.2 6.4 3.6 8.3 6.7V69c0-7 4.6-13 10.9-15.2z"/><circle cx="50.1" cy="55.7" r="8.1" fill="currentColor"/><path fill="currentColor" d="M50.1 66.4c-7.6 0-13.7 6.2-13.7 13.7v4.3c3.2 2 8.3 3.1 13.7 3.1s10.5-1.2 13.7-3.1v-4.3c0-7.5-6.1-13.7-13.7-13.7z"/><circle cx="19.9" cy="44.7" r="8.1" fill="currentColor"/><path fill="currentColor" d="M19.9 55.4c-7.6 0-13.7 6.2-13.7 13.7v4.3c3.2 2 8.3 3.1 13.7 3.1s10.5-1.2 13.7-3.1v-4.3c.1-7.6-6.1-13.7-13.7-13.7z"/><circle cx="80.1" cy="44.7" r="8.1" fill="currentColor"/><path fill="currentColor" d="M80.1 55.4c-7.6 0-13.7 6.2-13.7 13.7v4.3c3.2 2 8.3 3.1 13.7 3.1s10.5-1.2 13.7-3.1v-4.3c0-7.6-6.2-13.7-13.7-13.7z"/></svg>