<svg xmlns="http://www.w3.org/2000/svg" viewBox="0 0 3500 1010"><path fill="#017084" d="M350 987C136 914 0 727 0 505 0 328 83 177 234 78 346 5 500-20 626 14c195 52 345 219 376 417 38 253-125 498-377 565-78 21-199 17-275-9z"/><path fill="#03948d" d="M350 987C136 914 0 727 0 505 0 328 83 177 234 78 346 5 500-20 626 14c195 52 345 219 376 417 38 253-125 498-377 565-78 21-199 17-275-9zm253-271c41-10 57-10 58-2 0 6 3 4 6-4 4-8 12-19 19-25 18-14 44-119 44-180 0-116-56-242-140-317-73-65-81-66-139-24-61 45-125 139-148 215-21 72-21 180 0 253 16 54 19 57 65 72 93 29 148 32 235 12z"/><path fill="#0bc18e" d="M350 987C136 914 0 727 0 505 0 328 83 177 234 78 346 5 500-20 626 14c195 52 345 219 376 417 38 253-125 498-377 565-78 21-199 17-275-9zm212-140c209-159 223-486 28-659-73-65-81-66-139-24-61 45-125 139-148 215-21 72-21 180 0 252 9 31 35 84 57 117 38 57 121 131 147 132 6 0 31-15 55-33z"/><path fill="#0b73e6" d="M350 987C183 930 58 798 15 633-14 521 1 377 52 275l23-44 1 67c1 89 25 166 74 239 43 65 126 137 148 128 7-2 10 0 7 5-3 6-2 10 2 10 5 0 28 29 51 64 24 37 64 81 93 102l51 37 34-18c19-10 52-37 73-60 196-213 147-532-104-680-58-33-156-58-216-53-42 2-47 1-32-9 68-51 244-77 352-53 198 43 360 216 392 419 41 252-124 500-376 567-78 21-199 17-275-9z"/><path fill="#1395ec" d="M350 987C183 930 58 798 15 633-14 521 1 377 52 275l23-44 1 67c1 89 25 166 74 239 43 65 126 137 148 128 7-2 10 0 7 5-3 6-2 10 2 10 5 0 28 29 51 64 24 36 64 81 93 102 43 31 54 35 73 26 40-18 96-73 137-134 22-32 44-58 50-58s7-5 3-12c-4-6-3-8 4-4 14 9 89-50 128-101 18-23 35-40 38-37 3 2 4 1 2-2s7-33 21-66c13-34 27-93 30-132l6-71 23 49c126 274-40 612-341 692-78 21-199 17-275-9zm499-844l-34-38 38 34c20 19 37 36 37 38 0 8-8 0-41-34z"/><path fill="#15fa91" d="M350 987C183 930 58 798 15 633-14 521 1 377 52 275l23-44 1 67c1 89 25 166 74 239 43 65 126 137 148 128 7-2 10 0 7 5-3 6-2 10 2 10 5 0 28 29 51 64 76 116 217 195 352 196l45 1-40 21c-101 53-253 64-365 25z"/><path fill="#41c3ec" d="M850 865c19-19 36-35 39-35s-10 16-29 35-36 35-39 35 10-16 29-35zm153-360c0-33 2-45 4-27s2 45 0 60-4 0-4-33zM485 114c-33-22-144-46-196-42-42 2-47 1-32-9C297 33 389 7 469 2c95-5 174 9 241 44l45 23-45 1c-51 0-131 20-175 42-25 13-33 14-50 2z"/><path fill="#35f8e8" d="M360 991c-49-16-120-48-120-54 0-1 20-1 44 1 54 5 141-13 189-37 31-16 38-16 63-3 42 22 123 42 174 42l45 1-40 21c-95 50-251 63-355 29z"/><g fill="#111"><path d="M1265 816c-81-35-99-172-31-235 67-63 185-37 211 47 5 19 3 22-21 22-18 0-36-9-49-26-27-34-72-35-97-4-26 32-25 113 2 140 11 11 31 20 45 20 25 0 65-31 65-50 0-5 14-10 30-10 34 0 36 9 15 50-28 55-104 75-170 46z"/><path d="M1533 810c-84-51-85-195-1-245 64-37 162-14 193 45 21 41 19 118-5 157-37 62-124 82-187 43zm116-47c47-39 35-143-19-161-57-20-108 36-95 104 12 66 68 94 114 57zm945 58c-34-15-74-70-75-104-4-115 38-169 131-169 57 0 85 13 105 52 21 41 19 50-13 50-21 0-32-7-40-25-9-20-19-25-51-25-48 0-63 17-68 78-6 58 22 102 66 102 28 0 61-26 61-48 0-7 14-12 30-12 39 0 40 28 2 71-23 26-37 32-78 35-27 2-58 0-70-5zm-824-136V550h38c36 0 38 2 87 90l50 90 3-90 3-90h59v270h-85l-47-88-47-87-1 88v87h-60V685zm270 0V550h38c36 0 38 2 87 90l50 90 3-90 3-90h58v270h-84l-47-88-47-87-1 88v87h-60V685zm270 0V550h95c95 0 95 0 95 25 0 24-2 25-65 25h-65v60h60c53 0 60 2 60 20s-7 20-61 20h-60l3 38 3 37 63 3c54 3 62 6 62 22 0 18-7 20-95 20h-95V685zm540 25V600h-35c-31 0-35-3-35-25v-26l108 3c99 3 107 4 107 23 0 16-8 21-37 23l-38 3v219h-70V710zM1633 459c-35-10-73-52-73-80 0-30 58-26 69 5 15 37 67 49 95 21 23-24 9-42-42-54-77-19-100-31-112-61-9-22-9-34 2-56 19-41 54-56 117-51 44 3 59 9 78 31 13 15 23 34 23 42 0 21-53 17-73-6-21-24-75-27-84-4-8 22 6 32 73 49 60 16 94 43 94 76 0 26-19 63-39 76-26 16-92 23-128 12zm261 0c-58-17-69-39-72-160l-4-109h72l-6 83c-8 102 4 137 44 137 46 0 52-15 52-122v-98h60v100c0 122-13 154-68 169-20 6-39 11-42 10-3 0-19-5-36-10zm1182 1c-80-25-118-118-82-205 38-91 187-101 231-15 20 38 19 40-11 40-16 0-36-11-50-25-28-30-67-32-94-5-28 28-28 119 0 145 31 28 70 22 100-15 32-39 67-39 62 0-4 34-39 68-81 80-41 11-36 11-75 0zM1200 325V190h60v270h-60V325zm100 0V190h38c38 0 39 1 88 88l49 87 3-87 3-88h57l-1 133-2 132h-39c-38 0-39-1-85-82l-46-83-3 85-3 85h-59V325zm770 0V190h83c90 0 121 13 137 56 12 30-3 73-32 95l-21 16 32 46c17 25 31 48 31 51s-15 6-34 6c-29 0-37-6-64-50-17-27-38-50-47-50-11 0-15 12-15 50v50h-70V325zm158-44c5-30-20-51-60-51-26 0-28 3-28 41v40l43-3c36-3 42-6 45-27zm92 44V190h100c93 0 100 1 100 20 0 18-7 20-65 20h-65v30c0 30 1 30 55 30 52 0 55 1 55 25s-3 25-55 25h-55v70h65c63 0 65 1 65 25v25h-200V325zm290 21V230h-40c-33 0-40-3-40-20 0-19 7-20 110-20 102 0 110 1 110 19 0 16-8 20-37 23l-38 3v220l-32 3-33 3V346zm162-21V190h99c92 0 99 1 99 20 0 18-7 20-65 20h-65v30c0 28 1 29 58 32 49 3 57 6 57 23s-8 20-57 23l-58 3v69h65c63 0 65 1 65 25 0 25 0 25-99 25h-99V325zm491 0V190h67v100h110v-50c0-49 1-50 30-50h30v270h-60V340h-110v120h-67V325z"/></g></svg>