<svg xmlns="http://www.w3.org/2000/svg" viewBox="0 0 1820 1220"><path d="M234 1180c-39-15-74-68-74-111 0-80 49-129 130-129 86 0 146 101 106 179-30 58-103 85-162 61zm66-115c0-87-3-105-15-105s-15 18-15 105 3 105 15 105 15-18 15-105zm166 109c-11-10-16-34-16-74 0-38-4-60-12-63-31-11 8-19 99-20l98-2 3 70c2 38 7 74 12 81 6 6 7 14 3 17-11 11-93 8-93-3 0-7-6-7-19 0-28 14-57 12-75-6zm84-79c0-30-4-57-10-60-6-4-10 18-10 60s4 64 10 60c6-3 10-30 10-60zm158 84c-14-8-18-24-18-74 0-37-4-65-10-65-21 0-9-21 18-31 15-5 37-22 49-37l23-27v38c0 30 4 37 20 37 11 0 20 5 20 10 0 6-9 10-20 10-18 0-20 7-20 63v62l20-25c16-20 20-22 20-7 0 42-61 70-102 46zm322 4c-86-34-78-146 12-168 35-9 94 11 113 38 38 54 0 125-70 132-22 3-47 2-55-2zm50-83c0-40-4-70-10-70s-10 30-10 70 4 70 10 70 10-30 10-70zm159 75c-30-16-54-65-45-93 21-65 119-90 170-43 34 32 40 56 25 92-21 53-94 74-150 44zm71-75c0-58-12-85-24-54-15 39-3 130 15 118 5-3 9-32 9-64zm-480 70c0-5 5-10 10-10 6 0 10-40 10-100s-4-100-10-100c-5 0-10-4-10-10 0-5 23-10 50-10h50v108c0 71 4 112 12 120 9 9-2 12-50 12-35 0-62-4-62-10z"/><path d="M1428 1085c5-127 0-145-40-145-63 0-112-23-169-80-77-76-102-143-102-270 0-189 88-322 232-351l57-12-23-23c-39-39-27-92 27-114 44-18 90 2 90 40 0 34-27 47-49 25-13-13-13-19-3-35 7-11 8-20 3-20-24 0-29 81-6 100 13 10 19 10 35-5 11-10 20-13 20-8 0 15-24 33-57 43-25 7-25 8-5 9 35 1 93 35 134 78 121 125 131 373 21 517-24 32-58 60-92 78l-53 28h72v153l26-24c21-19 23-25 10-27-37-8-12-22 39-22 30 0 55 5 55 10 0 6-7 10-16 10-8 0-24 5-35 10-18 10-17 13 14 60 17 27 37 50 44 50 6 0 15 5 18 10 4 6-39 10-122 10h-128l3-95zm122 77c0-5-7-17-15-28-14-19-14-19-15 2 0 11 3 24 7 27 9 10 23 9 23-1zm-129-279c11-12 15-70 17-252 2-130 0-261-5-291-7-48-11-55-33-58-47-7-50 10-50 306 0 169 4 281 10 293 13 23 43 25 61 2zM354 922c-85-35-152-116-179-216-53-194 33-404 187-457 53-18 48-22-28-19-23 1-45-3-49-9-3-6-1-11 4-11 16 0 14-97-2-107-7-5 3-10 28-14 22-4 41-3 43 2 2 4 14 3 28-3 39-18 62 13 65 83l2 56 49 15c56 17 67 2 15-22-23-11-32-22-32-40 0-37 39-35 43 2 4 34 22 37 22 4 0-17-10-30-35-45-45-26-49-69-7-100 15-12 33-26 41-32 10-9 15-9 21 1 4 6 18 17 31 24 30 14 33 51 4 51-12 0-22-9-26-25l-7-25-1 26c-1 18 7 30 25 40 51 27 51 97 0 120-24 11-41 45-27 54 4 2 24-7 44-22 19-14 40-22 46-18 7 4 11 51 11 126 0 107-2 119-18 119-12 0-23-16-35-50-10-28-35-68-56-91-37-38-42-40-87-37-75 5-78 18-79 273 0 230 7 274 51 294 77 35 156-20 189-132 13-46 35-61 35-25 0 50-33 122-76 164-63 64-154 81-240 46zm23-790c-2-15-4-2-4 28s2 43 4 28c2-16 2-40 0-56zm205 46c-9-9-12-7-12 12s3 21 12 12 9-15 0-24zM546 43c-11-11-19 6-11 24 8 17 8 17 12 0 3-10 2-21-1-24z"/><path d="M155 220c-3-5-1-10 4-10 16 0 14-153-1-168-9-9 2-12 50-12 35 0 62 4 62 10s-4 10-10 10-10 33-10 80 4 80 10 80 10 5 10 10c0 6-24 10-54 10s-58-4-61-10zm527-2c-7-7-12-33-12-58s-5-51-12-58c-9-9-5-12 18-13 16 0 53-2 82-2l52-2v62c0 38 4 63 11 63 5 0 7 5 4 10-9 14-75 13-75-2 0-9-3-9-12 0-7 7-19 12-28 12s-21-5-28-12zm68-75c0-17-4-35-10-38-6-4-10 14-10 47 0 38 3 49 10 38 5-8 10-29 10-47zm95 18c0-69 0-69 30-74 17-3 34-1 39 4 5 4 17 4 26-1 26-14 54 11 46 38-9 26-41 29-56 5-9-14-10-5-7 40l4 57h-82v-69zm167 57c-18-18-14-46 7-60 18-11 18-13 4-23-41-30 34-68 94-48 25 9 28 15 31 59s13 63 35 64c12 0 8-98-5-107-8-5 2-10 27-14 22-4 41-3 43 2 2 4 14 3 27-3 38-17 55 4 55 68 0 31 4 54 11 54 5 0 8 4 4 9-7 12-163 12-170 1-3-5-16-5-29 1-16 8-29 8-43 1-12-7-25-7-34-1-20 12-43 11-57-3zm258-60c0-38-3-49-10-38-13 20-13 90 0 90 6 0 10-24 10-52zm292 62c-52-21-53-98-2-125 41-21 58-19 91 14 43 44 39 61-17 61-38 0-45 3-40 16 3 9 6 18 6 20 0 11 35 2 52-13 10-9 18-11 18-5 0 16-41 42-65 41-11 0-30-4-43-9zm48-96c0-14-4-23-10-19-5 3-10 15-10 26 0 10 5 19 10 19 6 0 10-12 10-26z"/><path fill="#0072bb" d="M354 922c-85-35-152-116-179-216-40-148 1-313 99-404 78-71 195-90 273-43 31 19 31 19 66-6 20-14 40-22 46-18 7 4 11 51 11 126 0 107-2 119-18 119-12 0-23-16-35-50-10-28-35-68-56-91-37-38-42-40-87-37-75 5-78 18-79 273 0 230 7 274 51 294 77 35 156-20 189-132 13-46 35-61 35-25 0 50-33 122-76 164-63 64-154 81-240 46zm956 5c-54-17-143-111-168-178-78-210 10-454 182-504 93-27 176-3 248 72 121 125 131 373 21 517-69 91-177 126-283 93zm111-44c11-12 15-70 17-252 2-130 0-261-5-291-7-48-11-55-33-58-47-7-50 10-50 306 0 169 4 281 10 293 13 23 43 25 61 2zm-697 32c-8-21 4-35 32-35h24V291l-27-3c-17-2-29-10-31-20-3-17 10-18 167-18 164 0 171 1 171 20 0 15-7 20-25 20h-25v590h25c20 0 25 5 25 25v25H895c-136 0-167-3-171-15z"/></svg>