<svg xmlns="http://www.w3.org/2000/svg" viewBox="0 0 231 22"><g fill="none" fill-rule="evenodd"><path fill="#06BCE3" d="M46.54 12.87l-3.18 3.6V21h-4.35V.6h4.35v9.99L52.24.6h5.16l-7.92 8.97L58.21 21h-5.4l-6.27-8.13zM90.07.6l-6.69 20.52h-4.23L74.68 8.13l-4.44 12.99h-4.26L59.32.6h4.56l4.29 13.74L72.88.6h3.63l4.71 13.74L85.51.6h4.56zm7.2 0V21h-4.35V.6h4.35zm11.55 12.27l-3.18 3.6V21h-4.35V.6h4.35v9.99L114.52.6h5.16l-7.92 8.97L120.49 21h-5.4l-6.27-8.13zm24.12 4.41c1.46 0 2.67-.39 3.63-1.17.96-.78 1.62-1.9 1.98-3.36h4.44c-.42 2.62-1.54 4.72-3.36 6.3-1.82 1.58-4.05 2.37-6.69 2.37-3 0-5.53-1-7.59-3-2.04-2-3.06-4.54-3.06-7.62 0-3.06 1.02-5.59 3.06-7.59 2.08-2.02 4.61-3.03 7.59-3.03 2.64 0 4.87.79 6.69 2.37 1.82 1.58 2.94 3.68 3.36 6.3h-4.44c-.36-1.46-1.02-2.58-1.98-3.36-.96-.78-2.17-1.17-3.63-1.17-1.84 0-3.34.6-4.5 1.8-1.18 1.22-1.77 2.78-1.77 4.68s.59 3.46 1.77 4.68c1.16 1.2 2.66 1.8 4.5 1.8zM156.7.18c2.98 0 5.5 1.03 7.56 3.09 2.08 2.08 3.12 4.59 3.12 7.53 0 2.94-1.04 5.45-3.12 7.53-2.06 2.06-4.58 3.09-7.56 3.09-2.98 0-5.5-1.03-7.56-3.09-2.06-2.06-3.09-4.57-3.09-7.53s1.03-5.47 3.09-7.53c2.06-2.06 4.58-3.09 7.56-3.09zm0 17.19c1.82 0 3.31-.64 4.47-1.92 1.2-1.28 1.8-2.83 1.8-4.65 0-1.8-.6-3.35-1.8-4.65-1.16-1.28-2.65-1.92-4.47-1.92-1.78 0-3.27.64-4.47 1.92-1.2 1.3-1.8 2.85-1.8 4.65 0 1.8.6 3.35 1.8 4.65 1.2 1.28 2.69 1.92 4.47 1.92zM191.74.6l-9.09 20.52h-4.08L169.45.6h4.77l6.36 14.73L187 .6h4.74zm6.9 3.93v4.44h9.54v3.93h-9.54v4.17h10.77V21h-15.12V.6h15.12v3.93h-10.77zm21.9 10.14H217V21h-4.35V.6h8.7c2.36 0 4.3.65 5.82 1.95 1.52 1.28 2.28 2.97 2.28 5.07 0 1.44-.375 2.715-1.125 3.825-.75 1.11-1.795 1.945-3.135 2.505l5.58 7.05h-5.22l-5.01-6.33zM217 10.68h4.2c1.14 0 2.085-.285 2.835-.855.75-.57 1.125-1.305 1.125-2.205 0-.9-.375-1.635-1.125-2.205-.75-.57-1.695-.855-2.835-.855H217v6.12z"/><path fill="#7ED321" fill-rule="nonzero" d="M10 3.64h20V0H10zM0 12.638h25V9.002H0zm10 8.998h20V18H10z"/></g></svg>