<svg viewBox="0 0 100 100"><path fill="currentColor" d="M67.39 73.12c0-.66-.27-1.311-.729-1.771-.94-.93-2.61-.93-3.54 0-.471.46-.73 1.11-.73 1.771 0 .649.26 1.3.73 1.76.47.47 1.109.74 1.77.74.65 0 1.3-.271 1.771-.74.458-.46.728-1.11.728-1.76zm10.179-24.63a2.502 2.502 0 00-2.59 2.409 2.517 2.517 0 002.41 2.591h.09a2.501 2.501 0 00.09-5zm-29.989-26c0 1.38 1.109 2.51 2.489 2.51 1.381 0 2.5-1.11 2.511-2.49 0-1.38-1.11-2.51-2.49-2.51a2.494 2.494 0 00-2.51 2.49zM77.1 44.67a2.494 2.494 0 001.7-3.101c-.39-1.319-1.78-2.09-3.1-1.699a2.496 2.496 0 00-1.7 3.1 2.494 2.494 0 003.1 1.7zm-55.85-3.26c-.4 1.319.359 2.71 1.68 3.109.24.07.48.101.72.101a2.5 2.5 0 002.391-1.78c.39-1.32-.36-2.72-1.681-3.11-1.32-.4-2.72.36-3.11 1.68zm46.78-15.39h-.01c-1.1-.83-2.67-.609-3.5.49s-.6 2.67.5 3.5c.45.34.98.5 1.5.5.761 0 1.511-.34 2-.99a2.5 2.5 0 00-.49-3.5zm-11.65-2.89c-.44 1.3.27 2.72 1.57 3.16a2.503 2.503 0 003.17-1.58 2.501 2.501 0 00-1.58-3.16 2.493 2.493 0 00-3.16 1.58zM29.52 35.649a2.499 2.499 0 00-4.089-2.869 2.512 2.512 0 00.61 3.489c.439.3.939.45 1.43.45a2.47 2.47 0 002.049-1.07zM23.31 57.12a2.488 2.488 0 00-1.479 3.199 2.496 2.496 0 002.34 1.65c.29 0 .58-.05.87-.16a2.496 2.496 0 001.479-3.21 2.501 2.501 0 00-3.21-1.479zm5.18 12.5c.54 0 1.09-.181 1.55-.54a2.51 2.51 0 00.399-3.521 2.495 2.495 0 00-3.51-.39 2.496 2.496 0 001.561 4.451zm12.909-43.25c.261 0 .521-.04.78-.12a2.508 2.508 0 001.59-3.16 2.493 2.493 0 00-3.149-1.59 2.485 2.485 0 00-1.59 3.149 2.48 2.48 0 002.369 1.721zM22.52 53.34h.07c1.38-.05 2.46-1.2 2.42-2.58s-1.19-2.46-2.57-2.42-2.47 1.19-2.43 2.57a2.509 2.509 0 002.51 2.43zm52.379 8.61a2.48 2.48 0 003.21-1.471 2.487 2.487 0 00-1.46-3.21 2.498 2.498 0 10-1.75 4.681zm-5.429 3.72a2.518 2.518 0 00.38 3.52 2.508 2.508 0 003.52-.38 2.518 2.518 0 00-.38-3.52 2.517 2.517 0 00-3.52.38zm5.2-32.75a2.495 2.495 0 00-3.48-.63 2.494 2.494 0 00-.63 3.479c.48.7 1.26 1.07 2.05 1.07.49 0 .99-.14 1.431-.44a2.512 2.512 0 00.629-3.479zm-41.07-2.5c.521 0 1.05-.16 1.5-.49a2.512 2.512 0 00.51-3.5 2.495 2.495 0 00-3.5-.51 2.495 2.495 0 001.49 4.5zm-.3 40.899a2.5 2.5 0 00-.74 1.771c0 .65.271 1.3.74 1.76.46.47 1.11.74 1.76.74.66 0 1.3-.271 1.771-.74a2.48 2.48 0 00.729-1.76c0-.66-.26-1.31-.729-1.771-.932-.939-2.602-.929-3.531 0zm38.15 8.101c0-.66-.271-1.3-.73-1.771-.939-.93-2.61-.93-3.54 0-.46.471-.729 1.11-.729 1.771s.27 1.31.729 1.77c.47.46 1.11.73 1.771.73.649 0 1.3-.271 1.77-.73.459-.461.729-1.11.729-1.77zM23.37 31.37a2.5 2.5 0 00-.61-3.48c-1.13-.8-2.69-.52-3.49.61a2.5 2.5 0 002.05 3.929 2.503 2.503 0 002.05-1.059zm57.46-2.73a2.513 2.513 0 00-3.48-.63 2.495 2.495 0 00-.63 3.48 2.505 2.505 0 002.061 1.079c.489 0 .979-.149 1.42-.449a2.513 2.513 0 00.629-3.48zM19.49 61.21a2.51 2.51 0 00-3.21-1.49 2.508 2.508 0 00-1.49 3.21 2.505 2.505 0 002.35 1.64c.29 0 .58-.05.86-.149 1.3-.48 1.96-1.92 1.479-3.21l.011-.001zm59.34 8.78a2.505 2.505 0 00-3.511.38 2.509 2.509 0 00.37 3.52 2.53 2.53 0 001.57.55c.73 0 1.46-.319 1.95-.93a2.497 2.497 0 00-.379-3.52zM50.09 12.5c-1.38 0-2.5 1.109-2.51 2.49 0 1.38 1.12 2.51 2.5 2.51s2.5-1.12 2.5-2.49a2.495 2.495 0 00-2.49-2.51zm34.979 36.25a2.518 2.518 0 00-2.59 2.42 2.494 2.494 0 002.41 2.58h.09c1.34 0 2.45-1.061 2.5-2.41a2.508 2.508 0 00-2.41-2.59zM15.74 42.399a2.506 2.506 0 003.109-1.689 2.505 2.505 0 00-1.689-3.11c-1.32-.39-2.71.36-3.11 1.69a2.506 2.506 0 001.69 3.109zm65.46-1.54a2.507 2.507 0 002.4 1.801c.23 0 .47-.03.7-.101a2.513 2.513 0 001.7-3.1 2.499 2.499 0 00-3.101-1.7 2.49 2.49 0 00-1.699 3.1zM24.59 70.25a2.51 2.51 0 00-3.521-.391 2.507 2.507 0 00-.39 3.511c.5.62 1.22.939 1.96.939.54 0 1.09-.18 1.561-.54a2.516 2.516 0 00.39-3.519zm57.34-5.69a2.508 2.508 0 003.22-1.46c.48-1.3-.18-2.74-1.47-3.22a2.51 2.51 0 00-3.22 1.47 2.499 2.499 0 001.47 3.21zm-9.41-44.55c-1.1-.83-2.67-.61-3.5.5-.83 1.1-.609 2.67.49 3.5h.01a2.504 2.504 0 003.5-.5c.82-1.1.6-2.67-.5-3.5zm-33.48-.76c.26 0 .52-.04.779-.12 1.311-.44 2.03-1.85 1.591-3.16a2.494 2.494 0 00-3.16-1.59h.01a2.491 2.491 0 00-1.6 3.15 2.515 2.515 0 002.38 1.72zM15.09 53.59c1.38-.05 2.47-1.2 2.43-2.58-.05-1.38-1.2-2.46-2.58-2.42s-2.46 1.19-2.42 2.58a2.496 2.496 0 002.49 2.42zm43.66-37.58c-.44 1.31.27 2.73 1.58 3.16.26.09.529.13.79.13 1.04 0 2.02-.66 2.37-1.7a2.508 2.508 0 00-1.58-3.17 2.495 2.495 0 00-3.16 1.58zm-27.63 4.41a2.494 2.494 0 00-3.5-.51c-1.101.819-1.34 2.39-.511 3.489a2.507 2.507 0 003.5.521c1.101-.83 1.33-2.4.511-3.5zm-1.9 57.189c-.46.471-.729 1.11-.729 1.771s.27 1.3.729 1.77c.47.46 1.11.73 1.771.73.659 0 1.3-.271 1.77-.73.46-.47.73-1.109.73-1.77s-.271-1.3-.73-1.771c-.931-.929-2.612-.929-3.541 0zm42.02 6.351c-.46.46-.73 1.109-.73 1.77 0 .65.26 1.301.73 1.761.47.47 1.109.739 1.77.739s1.3-.27 1.771-.739c.46-.46.729-1.11.729-1.761 0-.67-.27-1.31-.729-1.77-.931-.93-2.611-.93-3.541 0zM17.22 27.069a2.497 2.497 0 10-4.089-2.869 2.502 2.502 0 00.61 3.489c.43.301.93.45 1.43.45a2.485 2.485 0 002.049-1.07zM37.46 12h.01a2.493 2.493 0 001.59-3.15 2.503 2.503 0 00-3.16-1.6 2.504 2.504 0 10.78 4.88c.259 0 .52-.04.78-.13zM50.1 5c-1.38 0-2.5 1.109-2.5 2.5 0 1.38 1.11 2.5 2.49 2.5h.01c1.37 0 2.49-1.11 2.5-2.49A2.51 2.51 0 0050.1 5zM24.64 18.399c.521 0 1.04-.17 1.49-.5 1.1-.819 1.33-2.39.51-3.5a2.513 2.513 0 00-3.5-.51 2.496 2.496 0 00-.51 3.5c.49.661 1.24 1.01 2.01 1.01zM15.22 74.54a2.497 2.497 0 103.121 3.899 2.504 2.504 0 00.39-3.51 2.5 2.5 0 00-3.511-.389zm75.49-12.05c-1.29-.48-2.73.18-3.22 1.47a2.507 2.507 0 002.35 3.38c1.01 0 1.96-.62 2.34-1.63a2.514 2.514 0 00-1.47-3.22zm-6.03 12.199a2.5 2.5 0 00-3.52.38c-.87 1.07-.7 2.65.38 3.511.46.38 1.02.56 1.569.56.73 0 1.45-.32 1.95-.93a2.516 2.516 0 00-.379-3.521zm.259-46.399c.49 0 .99-.141 1.42-.44 1.131-.79 1.421-2.35.631-3.479a2.494 2.494 0 00-3.48-.63 2.49 2.49 0 00-.63 3.479c.49.7 1.269 1.07 2.059 1.07zm7.621 20.73a2.488 2.488 0 00-2.58 2.41 2.503 2.503 0 002.41 2.59h.08c1.34 0 2.46-1.06 2.5-2.41a2.502 2.502 0 00-2.41-2.59zM9.97 35.46a2.505 2.505 0 00-3.11 1.689c-.39 1.32.36 2.71 1.69 3.11.23.07.47.1.71.1 1.08 0 2.07-.699 2.39-1.79h.011A2.515 2.515 0 009.97 35.46zM64.29 7.319a2.493 2.493 0 00-3.16 1.58 2.501 2.501 0 002.37 3.29c1.04 0 2.02-.659 2.37-1.71a2.496 2.496 0 00-1.58-3.16zm26.5 33.221a2.51 2.51 0 002.41-3.201 2.52 2.52 0 00-3.11-1.7 2.506 2.506 0 00-1.69 3.11 2.486 2.486 0 002.39 1.791zM77.51 17.51c.83-1.1.61-2.67-.49-3.5s-2.67-.61-3.5.5c-.83 1.1-.609 2.67.49 3.5.45.33.98.5 1.51.5.75 0 1.5-.35 1.99-1zM12.45 63.8a2.496 2.496 0 00-3.21-1.48 2.502 2.502 0 00-1.49 3.211 2.506 2.506 0 002.35 1.63 2.49 2.49 0 002.339-3.36l.011-.001zM5.02 51.41v-.011zm5-.16a2.502 2.502 0 00-2.58-2.42 2.494 2.494 0 00-2.419 2.573 2.5 2.5 0 002.5 2.427h.08a2.51 2.51 0 002.419-2.58zm15.129 32.66a2.528 2.528 0 00-.729 1.77c0 .65.26 1.3.729 1.76a2.473 2.473 0 003.531 0c.47-.46.74-1.1.74-1.76s-.271-1.31-.73-1.77c-.93-.931-2.61-.931-3.541 0z"/><path fill="currentColor" d="M72.5 50c0-12.813-10.79-23.166-23.727-22.467-11.804.628-21.347 10.773-21.273 22.613.049 7.595 3.893 14.599 10.282 18.737 1.389.899 2.218 2.449 2.218 4.146V85c0 5.514 4.486 10 10 10s10-4.486 10-10V73.03c0-1.701.814-3.243 2.179-4.122C68.642 64.741 72.5 57.673 72.5 50zM55 75H45v-1.971c0-3.4-1.683-6.52-4.5-8.344a17.451 17.451 0 01-8-14.571c-.058-9.21 7.361-17.1 16.539-17.589.322-.016.642-.025.961-.025 9.649 0 17.5 7.851 17.5 17.5 0 5.967-3.002 11.464-8.03 14.706C56.671 66.51 55 69.622 55 73.03zm-5 15c-2.757 0-5-2.243-5-5v-5h10v5c0 2.757-2.243 5-5 5z"/></svg>