<svg xmlns="http://www.w3.org/2000/svg" viewBox="0 0 180 60"><mask id="a" fill="#fff"><path fill-rule="evenodd" d="M.88 12.135C.88 5.549 6.192.208 12.736.208c6.54 0 11.847 5.34 11.847 11.927 0 6.586-5.307 11.926-11.847 11.926C6.192 24.061.88 18.721.88 12.135z"/></mask><mask id="b" fill="#fff"><path fill-rule="evenodd" d="M.906 8.581v-.12L.99 7.09a11.965 11.965 0 013.45-4.355l1.17 1.143.953 1.483-1.324.736v-.814l-.51.596-.733 1.328.732.814.294-1.182.958-.368 1.541 2.515-.736.513-.805.446-.741 1.629-.217 1.182 1.247 1.037h-.443l-.804-.446-.443-.96h-.809v.888l.732.15.52.591.15.664 1.685-.368 1.55 1.773.95.3-.367 1.847-1.767 4.144-.195.709c-.364-.16-.719-.336-1.063-.53l-.062-3.068-.88-2.287.365-1.483-1.618-1.11-1.247-1.11-1.252-1.7zm19.743 11.41l.314-2.821 1.252-1.26.805-.133a11.933 11.933 0 01-2.371 4.214zm2.465-4.522l-.899-1.052 1.248-.58c-.079.558-.196 1.103-.35 1.632zm-.8-8.707L21.2 9.722l.217 2.074-.886.518-.072 1.478-.414.242.341 1.755-.847.213-.477-1.027-.289-1.11-.226-1.255-.877 1.919-.88-2.292-.67-.519v.964l-.66.592.443 1.037-.958 1.478-.073 2.665-.736 2.51-.732.15-.954-3.774-.515-1.697-1.03.146-1.031-1.406.077-1.332.809-1.333-.077-1.032-.073-1.188.366-.663-.52-.296.14-.834.602-.867.453 1.124.5-.533-.722-1.144.246-1.046 1.069-1.507.881.518.37.737 1.027-.737-.15-.664.371-1.037.588-.223.732.96.958-.887.108-.613a11.952 11.952 0 014.687 4.976zM10.05.328l.56 1.625-.886.887-.14 2.074-.37.073-1.18 2.22-.732-1.183-.294-2.147h-.809L5.93 1.735A11.73 11.73 0 0110.05.328z"/></mask><mask id="c" fill="#fff"><path fill-rule="evenodd" d="M.289 59.71V.091h179.499v59.617z"/></mask><g fill="none" fill-rule="evenodd"><path fill="#5b91b8" d="M23.037 24.328h1.642V-.097h-1.642z" mask="url(#a)" transform="translate(93.5 11.538)"/><path fill="#6798bd" d="M20.528 24.328h2.394V-.097h-2.394z" mask="url(#a)" transform="translate(93.5 11.538)"/><path fill="#719ec1" d="M18.024 24.328h2.393V-.097h-2.393z" mask="url(#a)" transform="translate(93.5 11.538)"/><path fill="#7fa5c5" d="M15.52 24.328h2.388V-.097H15.52z" mask="url(#a)" transform="translate(93.5 11.538)"/><path fill="#8cadca" d="M13.016 24.328h2.393V-.097h-2.393z" mask="url(#a)" transform="translate(93.5 11.538)"/><path fill="#99b5d0" d="M10.507 24.328H12.9V-.097h-2.393z" mask="url(#a)" transform="translate(93.5 11.538)"/><path fill="#a6bed5" d="M8.002 24.328h2.394V-.097H8.002z" mask="url(#a)" transform="translate(93.5 11.538)"/><path fill="#b3c8da" d="M5.493 24.328h2.399V-.097H5.493z" mask="url(#a)" transform="translate(93.5 11.538)"/><path fill="#c1d2e0" d="M2.994 24.328h2.393V-.097H2.994z" mask="url(#a)" transform="translate(93.5 11.538)"/><path fill="#cedbe6" d="M.49 24.328h2.388V-.097H.49z" mask="url(#a)" transform="translate(93.5 11.538)"/><g><path fill="#005f57" d="M22.264 23.741h1.415V-.097h-1.415z" mask="url(#b)" transform="translate(94.5 11.538)"/><path fill="#00655e" d="M19.89 23.741h2.393V-.097h-2.394z" mask="url(#b)" transform="translate(94.5 11.538)"/><path fill="#006b64" d="M17.52 23.741h2.389V-.097H17.52z" mask="url(#b)" transform="translate(94.5 11.538)"/><path fill="#00736c" d="M15.141 23.741h2.398V-.097h-2.398z" mask="url(#b)" transform="translate(94.5 11.538)"/><path fill="#167c76" d="M12.772 23.741h2.398V-.097h-2.398z" mask="url(#b)" transform="translate(94.5 11.538)"/><path fill="#32867f" d="M10.402 23.741h2.389V-.097h-2.389z" mask="url(#b)" transform="translate(94.5 11.538)"/><path fill="#468f89" d="M8.028 23.741h2.394V-.097H8.028z" mask="url(#b)" transform="translate(94.5 11.538)"/><path fill="#599993" d="M5.65 23.741h2.397V-.097H5.65z" mask="url(#b)" transform="translate(94.5 11.538)"/><path fill="#6ca39d" d="M3.28 23.741h2.388V-.097H3.28z" mask="url(#b)" transform="translate(94.5 11.538)"/><path fill="#7eaea8" d="M.906 23.741h2.393V-.097H.906z" mask="url(#b)" transform="translate(94.5 11.538)"/></g><g fill="#00679b"><path d="M0 24.725V59.98l26.299.01.005-14.544H14.963V24.725zM0 21.725h14.963V.097H0zM28.808 21.706h14.958V.106H28.808zM28.808 59.99h14.948V24.715H28.808zM53.272 21.696l21.093.01L71.36.116H57.245zM104.734 9.595c-6.569.683-11.626 5.888-12.473 12.077l-10.783-.03L88.952.093l15.782.005zM52.762 24.7h22.042l1.57 11.714 4.06-11.713 11.72-.005c.473 6.843 5.871 12.362 12.604 13.06l.005 22.225H88.278l-.005-28.622L77.25 59.981h-7.2l-3.915-29.106L59.86 59.98H46.265zM160.245 46.605h-15.747L139.956 60l-16.185-.01L146.333.12l14.654.04 18.8 59.83H163.78zm-2.913-10.938l-4.137-18.386-5.846 18.386z" mask="url(#c)"/><path d="M107.614 46.654l.004-8.86c7.09-.711 12.7-6.784 12.7-14.101s-5.63-13.424-12.719-14.132l.02-9.455c13.084.315 23.592 11.088 23.592 24.328a24.359 24.359 0 01-8.572 18.585l12.17 16.933-17.424.029z" mask="url(#c)"/><path d="M169.95 1.895c.5 0 .861.048 1.097.145.414.174.626.514.626 1.023 0 .363-.13.63-.395.8-.14.091-.337.154-.587.198.313.048.549.18.689.392.154.218.226.422.226.626v.3c0 .092 0 .194.01.3.004.107.019.18.033.209l.024.053h-.664c-.005-.014-.005-.029-.01-.043-.005-.015-.005-.025-.01-.044l-.014-.13v-.32c0-.47-.13-.781-.38-.931-.145-.087-.41-.126-.785-.126h-.56V5.94h-.707V1.895zm.755.64c-.173-.102-.462-.156-.852-.156h-.602v1.469h.636c.298 0 .525-.03.674-.092.274-.107.414-.32.414-.63 0-.296-.092-.495-.27-.592zm1.907 4.007c-.712.722-1.58 1.08-2.595 1.08-1.017 0-1.879-.358-2.586-1.08a3.593 3.593 0 01-1.065-2.612c0-1.018.361-1.88 1.074-2.602.713-.718 1.57-1.076 2.577-1.076 1.016 0 1.883.358 2.595 1.076.718.717 1.074 1.584 1.074 2.602s-.356 1.89-1.074 2.612zm-4.82-4.86c-.612.62-.915 1.37-.915 2.248 0 .882.303 1.633.91 2.253a3.005 3.005 0 002.23.936c.876 0 1.618-.31 2.23-.936.61-.62.914-1.371.914-2.253 0-.877-.303-1.628-.915-2.249a3.011 3.011 0 00-2.23-.93c-.861 0-1.608.31-2.224.93z"/></g></g></svg>