<svg xmlns="http://www.w3.org/2000/svg" viewBox="0 0 100 75"><linearGradient id="a" x1="5.388%" x2="84.005%" y1="100%" y2="-7.433%"><stop offset="0" stop-color="#46e5f2"/><stop offset="1" stop-color="#9e66ff"/></linearGradient><g fill="url(#a)" opacity=".2"><path d="M45.967 11.768c-14.153 0-25.877 9.792-27.718 22.449H0v7.408h18.31c2.049 12.44 13.67 22 27.657 22 15.427 0 27.979-11.632 27.979-25.928 0-14.297-12.552-25.929-27.98-25.929zm0 44.449c-11.036 0-19.984-8.292-19.984-18.52s8.948-18.52 19.984-18.52c11.038 0 19.985 8.291 19.985 18.52s-8.947 18.52-19.985 18.52z"/><path d="M100 34.266H86.344C84.564 15.1 67.157 0 46.007 0h-.003v7.409h.003c17.949 0 32.499 13.476 32.499 30.099s-14.55 30.099-32.5 30.099h-.002v7.409h.003c20.81 0 37.995-14.614 40.242-33.34H100z"/><ellipse cx="45.972" cy="37.162" rx="11.989" ry="11.108"/></g></svg>