<svg xmlns="http://www.w3.org/2000/svg" viewBox="0 0 50 50"><path fill="currentColor" d="M10.5 4C6.37 4 3 7.37 3 11.5S6.37 19 10.5 19s7.5-3.37 7.5-7.5c0-.169-.014-.334-.025-.5h2.582a3.926 3.926 0 00-.467 1.162l-2.08 9.72a816.18 816.18 0 00-6.045-.823A11.292 11.292 0 0011 21c-4.073 0-7.444 3.059-7.938 7A8.05 8.05 0 003 29c0 2.441 2.525 14.795 2.979 17h2.054C7.041 40.89 5 30.217 5 29c0-3.309 2.691-6 6-6 .278 0 .679.039.713.043 1.738.223 6.94.947 6.941.947a1 1 0 001.116-.781l2.273-10.629a2.007 2.007 0 012.375-1.535 2.003 2.003 0 011.537 2.375L22.74 28.414a2.01 2.01 0 01-2.213 1.565l-8.414-.973a1 1 0 10-.228 1.986l5.53.64L18.994 46h2.01l-1.55-14.13.834.095a4.025 4.025 0 004.406-3.131l3.215-14.996A3.949 3.949 0 0027.854 12H32c0 .52.402.932.908.98l-4.174 6.56-.742 3.46h.362c.342 0 .66-.175.843-.463L35.266 13h3.457c.102.176.185.362.23.566a1.99 1.99 0 01-.266 1.508l-7.636 12c-.37.58-1 .928-1.688.928H26.92l-.27 1.252a5.884 5.884 0 01-.228.748h2.94a3.98 3.98 0 003.374-1.854l7.637-12a3.973 3.973 0 00.531-3.015c-.01-.046-.03-.088-.043-.133H47V7H33a1 1 0 00-1 1h-9a1 1 0 00-1 1h-4.44c-1.034-2.906-3.807-5-7.06-5zm0 2c3.05 0 5.5 2.45 5.5 5.5S13.55 17 10.5 17 5 14.55 5 11.5 7.45 6 10.5 6z"/></svg>