<svg viewBox="0 0 66 66"><path fill="currentColor" d="M12 46.5c-2.4 0-4.3 1.9-4.3 4.3s1.9 4.3 4.3 4.3 4.3-1.9 4.3-4.3-2-4.3-4.3-4.3zm0 6.6c-1.3 0-2.3-1-2.3-2.3s1-2.3 2.3-2.3 2.3 1 2.3 2.3-1.1 2.3-2.3 2.3zm26-4.8c0-.6-.4-1-1-1H20c-.6 0-1 .4-1 1s.4 1 1 1h17c.6 0 1-.5 1-1zm-8.7 4h-9.2c-.6 0-1 .4-1 1s.4 1 1 1h9.2c.6 0 1-.4 1-1s-.5-1-1-1z"/><path fill="currentColor" d="M40.6 8h-5.8V6.7c0-.6-.4-1-1-1h-5.2C28.1 3 25.8 1 23 1s-5.2 2-5.6 4.7h-4.2c-.6 0-1 .4-1 1V8H6.3C4 8 2.1 9.9 2.1 12.3v47c0 2.3 1.9 4.2 4.2 4.2h27.5c.3 0 .5-.1.7-.3l10-10c.2-.2.3-.4.3-.7V12.3c0-2.4-1.9-4.3-4.2-4.3zm-26.4-.3h4.1c.6 0 1-.4 1-1-.1-2 1.6-3.7 3.7-3.7s3.7 1.7 3.7 3.7c0 .6.4 1 1 1h5.1v5.5H14.2zm18.6 53.8H6.3c-1.2 0-2.2-1-2.2-2.2v-47c0-1.2 1-2.2 2.2-2.2h5.8v4.2c0 .6.4 1 1 1h20.6c.6 0 1-.4 1-1V10h5.8c1.2 0 2.2 1 2.2 2.2v39.3H34c-.6-.1-1.1.4-1.1 1v9zm8.6-8l-6.6 6.6v-6.6z"/><path fill="currentColor" d="M12 32.4c-2.4 0-4.3 1.9-4.3 4.3S9.6 41 12 41s4.3-1.9 4.3-4.3-2-4.3-4.3-4.3zm0 6.6c-1.3 0-2.3-1-2.3-2.3s1-2.3 2.3-2.3 2.3 1 2.3 2.3C14.2 38 13.2 39 12 39zm0-19.4c-2.4 0-4.3 1.9-4.3 4.3s1.9 4.3 4.3 4.3 4.3-1.9 4.3-4.3-2-4.3-4.3-4.3zm0 6.6c-1.3 0-2.3-1-2.3-2.3s1-2.3 2.3-2.3 2.3 1 2.3 2.3-1.1 2.3-2.3 2.3zm8.1-3.5h17c.6 0 1-.4 1-1s-.4-1-1-1h-17c-.6 0-1 .4-1 1s.4 1 1 1zm0 5h17c.6 0 1-.4 1-1s-.4-1-1-1h-17c-.6 0-1 .4-1 1s.4 1 1 1zm0 7.4h17c.6 0 1-.4 1-1s-.4-1-1-1h-17c-.6 0-1 .4-1 1s.4 1 1 1zm0 5.1h17c.6 0 1-.4 1-1s-.4-1-1-1h-17c-.6 0-1 .4-1 1s.4 1 1 1zm42.8-14.8h-3.5v-3.5c0-2.7-1.9-5.1-4.6-5.3-3.1-.3-5.6 2.1-5.6 5.1v33.6c0 .1 0 .3.1.4l4.1 8.8c.2.4.5.6.9.6s.7-.2.9-.6l4.1-8.8c.1-.1.1-.3.1-.4V27.4h2.5v6.1c0 .6.4 1 1 1s1-.4 1-1v-7.1c0-.6-.4-1-1-1zm-11.7 2h2.2v26.8h-2.1V27.4zm3.1 34.2l-2.5-5.4h5.1zm3.1-7.4h-2.1V27.4h2.2v26.8zm0-28.8h-6.2v-3.7c0-1.7 1.4-3.1 3.1-3.1s3.1 1.4 3.1 3.1z"/></svg>