<svg xmlns="http://www.w3.org/2000/svg" viewBox="0 0 50 50"><path fill="currentColor" d="M25 2c-1.645 0-3 1.355-3 3v1.559c-1.36-.895-2.945-1.883-4.781-2.309-.903-.21-1.813-.27-2.7-.25-.882.02-1.738.117-2.539.21-.714.09-1.367.161-1.96.208L10 4.375l-.02.047c-.726.055-1.351.07-1.753-.024a1.005 1.005 0 00-1.204.747 1.003 1.003 0 00.75 1.203 6.28 6.28 0 001.36.132L1.922 23.996l.148.375S4.332 30 10 30c5.668 0 7.926-5.629 7.926-5.629l.152-.375L10.816 6.36c.465-.054.922-.105 1.403-.164 1.566-.187 3.172-.316 4.547 0C18.55 6.613 20.32 7.883 22 8.95V43h-6c-2.2 0-4 1.8-4 4v1h26v-1c0-2.2-1.8-4-4-4h-6V10.348c1.941-.22 4.023-.555 5.766-.149 1.41.324 2.797 1.086 4.12 1.864.505.3.989.585 1.473.863l-7.437 18.07.152.375S34.332 37 40 37s7.926-5.629 7.926-5.629l.152-.375-7.113-17.285c.265.101.531.2.808.262a.993.993 0 001.2-.746.993.993 0 00-.746-1.2c-.786-.183-1.97-.886-3.32-1.683C37.55 9.543 36 8.66 34.218 8.25c-1.262-.297-2.535-.297-3.735-.203-.89.07-1.714.183-2.484.277V5c0-1.645-1.355-3-3-3zm0 2c.563 0 1 .438 1 1v38h-2V5c0-.563.438-1 1-1zM10 9.625L15.504 23H4.492zm30 7L45.504 30H34.496zM4.715 25h10.57c-.797 1.227-2.426 3-5.285 3-2.86 0-4.488-1.773-5.285-3zm30 7h10.57c-.797 1.227-2.426 3-5.285 3-2.86 0-4.488-1.773-5.285-3zM16 45h18c.723 0 1.238.438 1.59 1H14.41c.352-.563.867-1 1.59-1z"/></svg>