<svg xmlns="http://www.w3.org/2000/svg" viewBox="0 0 50 50"><path fill="currentColor" d="M41 7c-2.2 0-4 1.8-4 4s1.8 4 4 4 4-1.8 4-4-1.8-4-4-4zm0 2c1.117 0 2 .883 2 2s-.883 2-2 2-2-.883-2-2 .883-2 2-2zM5 14c-2.2 0-4 1.8-4 4s1.8 4 4 4 4-1.8 4-4-1.8-4-4-4zm38.125 1.531c-.23-.004-.453.02-.688.063-1.878.351-3.164 2.183-2.812 4.062l.781 4.188-11.562 2.125C28.387 24.266 26.844 23 25 23c-2.2 0-4 1.8-4 4 0 .137.02.273.031.406l-9.812 1.782-.719-3.813c-.305-1.645-1.762-2.813-3.375-2.844-.23-.004-.453.02-.688.063-1.878.351-3.164 2.183-2.812 4.062l.719 3.813-4.157.75.344 1.968 21.219-3.874c.21.292.473.554.75.78a1.007 1.007 0 00-.535 1.16c.125.462.555.778 1.035.747h4a1.001 1.001 0 00.469-1.906A3.949 3.949 0 0028.844 28l12.75-2.344.187-.031c.043-.008.086-.02.125-.031l4.219-.75a.997.997 0 001.031-.188l2.688-.5-.344-1.968-2.25.406-.75-4.219c-.305-1.645-1.762-2.813-3.375-2.844zM5 16c1.117 0 2 .883 2 2s-.883 2-2 2-2-.883-2-2 .883-2 2-2zm38.094 1.531a1.477 1.477 0 011.437 1.219l.782 4.188-2.938.562-.781-4.219a1.459 1.459 0 011.187-1.718c.102-.02.211-.032.313-.032zm-36 7a1.477 1.477 0 011.437 1.219l.719 3.813-2.938.53-.718-3.812a1.459 1.459 0 011.187-1.718c.102-.02.211-.032.313-.032zM25 25c1.117 0 2 .883 2 2s-.883 2-2 2-2-.883-2-2 .883-2 2-2zm17.156 2.5l-2.093.406 2.156 3.657c.187.316.531.5.875.5a.96.96 0 00.5-.126c.476-.28.625-.898.343-1.375zm-29.312 5.375l-2.063.406-.562 3.594A.967.967 0 0011.03 38c.051.008.106.031.156.031.485 0 .926-.383 1-.875zm9.875.125c-.551.078-.938.59-.86 1.14.078.551.59.938 1.141.86h4c.36.004.695-.184.879-.496a1.01 1.01 0 000-1.008c-.184-.312-.52-.5-.879-.496h-4.281zm0 3c-.551.078-.938.59-.86 1.14.078.551.59.938 1.141.86h4c.36.004.695-.184.879-.496a1.01 1.01 0 000-1.008c-.184-.312-.52-.5-.879-.496h-4.281zm-2 3c-.551.078-.938.59-.86 1.14.078.551.59.938 1.141.86h8c.36.004.695-.184.879-.496a1.01 1.01 0 000-1.008c-.184-.312-.52-.5-.879-.496h-8.281z"/></svg>