<svg xmlns="http://www.w3.org/2000/svg" viewBox="0 0 50 50"><path fill="currentColor" d="M7.906 1.969c-.043.008-.086.02-.125.031A1.002 1.002 0 007 3v7H5c-1.645 0-3 1.355-3 3v2c0 1.645 1.355 3 3 3h6c1.645 0 3-1.355 3-3v-2c0-1.645-1.355-3-3-3H9V3a1 1 0 00-1.094-1.031zm17 0c-.043.008-.086.02-.125.031A1.002 1.002 0 0024 3v28h-2c-1.645 0-3 1.355-3 3v2c0 1.645 1.355 3 3 3h6c1.645 0 3-1.355 3-3v-2c0-1.645-1.355-3-3-3h-2V3a1 1 0 00-1.094-1.031zm17 0c-.043.008-.086.02-.125.031A1.002 1.002 0 0041 3v10h-2c-1.645 0-3 1.355-3 3v2c0 1.645 1.355 3 3 3h6c1.645 0 3-1.355 3-3v-2c0-1.645-1.355-3-3-3h-2V3a1 1 0 00-1.094-1.031zM5 12h6c.566 0 1 .434 1 1v2c0 .566-.434 1-1 1H5c-.566 0-1-.434-1-1v-2c0-.566.434-1 1-1zm34 3h6c.566 0 1 .434 1 1v2c0 .566-.434 1-1 1h-6c-.566 0-1-.434-1-1v-2c0-.566.434-1 1-1zM7 19v6.813A.753.753 0 007 26v21c-.004.36.184.695.496.879.313.18.695.18 1.008 0 .312-.184.5-.52.496-.879V26a.753.753 0 000-.188V19zm34 3v6.813A.753.753 0 0041 29v18c-.004.36.184.695.496.879.313.18.695.18 1.008 0 .312-.184.5-.52.496-.879V29a.753.753 0 000-.188V22zM22 33h6c.566 0 1 .434 1 1v2c0 .566-.434 1-1 1h-6c-.566 0-1-.434-1-1v-2c0-.566.434-1 1-1zm2 7v1.813A.753.753 0 0024 42v5c-.004.36.184.695.496.879.313.18.695.18 1.008 0 .312-.184.5-.52.496-.879v-5a.753.753 0 000-.188V40z"/></svg>