<svg xmlns="http://www.w3.org/2000/svg" viewBox="0 0 170.7 53"><path fill="#0a2239" d="M166.9 2.4c0-.8.7-1.4 1.4-1.4.8 0 1.5.7 1.5 1.4v1.4c0 .8-.7 1.6-1.5 1.6s-1.4-.7-1.4-1.6zm0 9.6c0-.8.7-1.4 1.4-1.4.8 0 1.5.6 1.5 1.4v26.5c0 .8-.7 1.4-1.5 1.4s-1.4-.7-1.4-1.4zM1.2 33.9c.5-.6 1.4-.7 2-.2 2 1.5 5.3 3.4 9 3.4 2.3 0 4.3-.7 5.6-1.8 1.4-1 2.2-2.3 2.2-3.6-.1-1.4-.6-2.3-2.1-3.6-1.3-1-3.4-1.7-6.2-2.2l-.1-.1c-2.6-.5-5-1.1-6.7-2.3-1.9-1.1-3.2-3-3.2-5.3s1.3-4.4 3.2-5.8c1.7-1.2 4.2-2 7.2-2 3.8 0 6.5 1.7 8.8 3.2.7.5.8 1.4.4 2-.4.7-1.3.8-2 .4-2.2-1.4-4.3-2.9-7.2-2.9-2.4 0-4.3.7-5.6 1.7-1.2 1-1.9 2.2-1.9 3.4s.5 2 1.7 2.9c1.3.9 3.3 1.6 6 2h.1c2.8.4 5.1 1.3 7.1 2.4 1.9 1.3 3.3 3.5 3.3 6s-1.4 4.4-3.4 5.9-4.4 2.3-7.3 2.3c-4.7-.1-8.5-2.3-10.9-4.2-.4-.2-.5-1 0-1.6zm28-8.1V12c0-.8.7-1.4 1.4-1.4.8 0 1.5.7 1.5 1.4v4.3c2.5-3.4 6.6-5.7 11.2-5.7 7.9 0 14.2 6.5 14.2 14.6 0 8-6.3 14.6-14.2 14.6-4.6 0-8.6-2.3-11.2-5.8v16.8c0 .8-.7 1.4-1.5 1.4s-1.4-.7-1.4-1.4zm3-.6c0 6.5 5.1 11.7 11.2 11.8 6.2-.1 11.3-5.3 11.3-11.8s-5-11.6-11.3-11.6c-5.9 0-10.9 4.9-11.2 11.2zm31-13.1c0-.8.7-1.4 1.5-1.4.7 0 1.4.6 1.4 1.4v6.5c.1-.2.2-.5.4-.7 2.2-3.5 6.1-7.2 11.8-7.2.8 0 1.4.6 1.4 1.4s-.7 1.4-1.4 1.4c-3.8 0-6.5 2.2-8.5 4.8s-3.1 5.6-3.5 6.8c-.1.2-.1.4-.1.5v12.9c0 .8-.7 1.4-1.4 1.4-.8 0-1.5-.6-1.5-1.4V12.1zm49.7-.1v26.5c0 .8-.7 1.4-1.4 1.4s-1.4-.7-1.4-1.4v-4.4c-2.5 3.5-6.5 5.8-11 5.8-7.7 0-13.9-6.7-13.9-14.7s6.2-14.7 13.9-14.7c4.5 0 8.5 2.3 11 5.8V12c0-.8.7-1.4 1.4-1.4s1.4.6 1.4 1.4zM110 25.3c0-6.6-5-11.9-11-11.9s-11 5.3-11 11.9 5 11.8 11 11.8 11-5.2 11-11.8z"/><g transform="translate(118 8)"><path fill="#0a2239" d="M20.3 6c-6 0-11 4.2-11.8 9.6H.7v3.2h7.8c.9 5.3 5.8 9.4 11.8 9.4 6.6 0 11.9-5 11.9-11.1S26.9 6 20.3 6zm0 19c-4.7 0-8.5-3.5-8.5-7.9s3.8-7.9 8.5-7.9 8.5 3.5 8.5 7.9S25 25 20.3 25z"/><path fill="#0a2239" d="M43.3 15.6h-5.8C36.7 7.4 29.3 1 20.3 1v3.2C28 4.2 34.2 9.9 34.2 17S28 29.8 20.3 29.8V33c8.9 0 16.2-6.2 17.2-14.2h5.9v-3.2z"/><ellipse cx="20.3" cy="16.8" fill="#46b2e2" rx="5.1" ry="4.7"/></g></svg>