<svg xmlns="http://www.w3.org/2000/svg" viewBox="0 0 50 50"><path fill="currentColor" d="M20 0c-2.75 0-5 2.25-5 5 0 2.035 1.242 3.785 3 4.563-.152-.047-.3-.09-.438-.126h-.03a33.537 33.537 0 00-.97-.25c-.53-.128-.98-.28-1.562-.28-.262 0-.457.034-.625.062a2.291 2.291 0 01-.25.031 1.006 1.006 0 00-.156.031L6.53 10.72h-.06v.031c-.887.172-1.676.77-2 1.656l-.032.031c-.003.008.004.024 0 .032l-2.25 5.437c-.593 1.34.067 2.754 1.25 3.469l-.03.031c.042.043.077.028.124.063.067.035.086.125.156.156l.032-.094c.426.254.937.469 1.094.469a2.82 2.82 0 002.593-1.719h.032l1.687-4.25 1.156-.281-2.156 7.688v.03c-.32 1.391-.102 2.571.375 3.47L7.094 31.28 2 36.406a3.317 3.317 0 000 4.688l.031.062.031.032c.563.449 1.317.906 2.25.906.79 0 1.66-.29 2.282-1l.062-.063h.032l5.625-5.625c.457-.457.707-1.011.843-1.562l1.156-4.469 3.282.594.812 6.062v.032c.27 1.609 1.637 2.843 3.282 2.843H22c.055-.008.105-.015.156-.031 1.785-.273 2.977-1.906 2.844-3.656v-.063l-1.219-8.25v-.062h-.031c-.176-1.438-1.277-2.535-2.656-2.813l-3.063-.593.875-3.5 1.25 1.78c.008.012.024.02.032.032a2.801 2.801 0 003.312 1.188l.156-.032v-.031L29 21.156c.055-.015.105-.039.156-.062 1.36-.68 2.13-2.219 1.688-3.688-.469-1.554-2.114-2.328-3.563-1.843l-3.5 1.156c-.285-.418-.668-1.02-1.406-2.125-.96-1.434-2.027-3.086-2.188-3.375-.457-.824-1.152-1.27-1.812-1.531.516.18 1.05.312 1.625.312 2.75 0 5-2.25 5-5s-2.25-5-5-5zm0 2c1.668 0 3 1.332 3 3s-1.332 3-3 3-3-1.332-3-3 1.332-3 3-3zm-5 8.906c-.082 0 .598.098 1.094.219.496.121.937.25.937.25h.032c.78.195 1.035.203 1.375.813.34.613 1.316 2.058 2.28 3.5a405.828 405.828 0 011.845 2.78.999.999 0 001.156.376l4.187-1.407c.352-.117.899.118 1.032.563.156.52-.051.96-.657 1.281l-5.406 1.782a1.143 1.143 0 00-.125.03c.04-.019.043 0-.156 0-.32 0-.633-.206-.75-.405v-.063l-2.5-3.688a1 1 0 00-1.813.313l-1.687 6.719a1 1 0 00.75 1.219l4.125.78c.597.122 1.043.598 1.093 1.126v.062L23 35.375v.063c.04.808-.363 1.347-1.156 1.468h-.157c-.738 0-1.14-.367-1.28-1.125L19.5 28.97a1.004 1.004 0 00-.813-.844l-7.406-1.313h-.094c-.34-.03-1.601-.707-1.124-2.843.003-.012-.004-.02 0-.032l2.593-9.28a.998.998 0 00-1.187-1.22l-3.313.782a1 1 0 00-.687.594L5.594 19.5l-.032.031a.86.86 0 01-.75.469.963.963 0 00-.312-.219c-.402-.18-.652-.722-.5-1.062l.031-.032 2.282-5.5a.466.466 0 00.03-.062c.087-.254.27-.395.532-.438h.031L14.188 11c.167 0 .16-.02.218-.031.074-.016.207-.02.281-.031a2.23 2.23 0 01.313-.032zM40 24v5h-7v5h-7v5h-7v5h-7v6h2v-4h7v-5h7v-5h7v-5h7v-5h7v-2zm-29.906 4.5c.27.121.554.215.844.25v.031H11l1.344.25-1.125 4.313c-.063.246-.168.511-.313.656h-.031l-5.719 5.719-.031.062c-.176.219-.434.313-.813.313-.238 0-.542-.133-.906-.407-.008-.007.008-.023 0-.03-.476-.5-.5-1.31-.031-1.813l5.5-5.5.094-.25z"/></svg>