<svg xmlns="http://www.w3.org/2000/svg" viewBox="0 0 50 50"><path fill="currentColor" d="M25 0C20.309 0 14.023 1.3 9.656 5.281 5.367 9.188 3.23 15.754 6.5 25.406c-.207.176-.41.364-.594.594C5.36 26.695 5 27.668 5 28.813c0 1.285.508 2.57 1.313 3.656a5.192 5.192 0 002.718 1.875c1.5 3.55 3.387 7.324 5.906 10.312C17.54 47.738 20.887 50 25 50s7.46-2.262 10.063-5.344c2.519-2.988 4.406-6.761 5.906-10.312a5.192 5.192 0 002.718-1.875C44.492 31.383 45 30.098 45 28.812c0-1.667-.75-2.847-1.625-3.593 2.375-7.778 2.05-13.598-.219-17.407-2.18-3.66-6.187-5.16-10.562-4.53C30.484.862 27.25 0 25 0zm0 2c1.813 0 4.887.879 6.406 2.906l.375.5.594-.125c4-.742 7.21.426 9.063 3.532 1.476 2.48 2.027 6.378 1.03 11.656-.558.047-1.71.097-2.5.156-.554-2.7-2.253-4.066-3.78-5.188-1.649-1.21-3.157-2.265-4.032-5.312l-.687-2.344-1.157 2.157c-.917 1.703-2.386 2.75-4.25 3.53-1.863.782-4.082 1.243-6.28 1.688-2.2.446-4.384.867-6.22 1.719-1.64.762-3.039 1.96-3.656 3.75-.84-.063-2.125-.14-2.687-.188C5.989 13.832 7.89 9.582 11 6.75 14.809 3.277 20.691 2 25 2zm5.906 10.281c1.117 2.422 2.727 3.746 4.094 4.75 1.473 1.082 2.535 1.801 2.969 3.75-4.782.34-10.582.719-12.969.719-2.395 0-8.215-.379-13-.719.453-.933 1.254-1.558 2.406-2.093 1.504-.696 3.582-1.118 5.781-1.563 2.2-.445 4.532-.922 6.657-1.813 1.574-.66 2.926-1.707 4.062-3.03zM7.688 22.47c4.117.335 13.869 1.03 17.312 1.03 3.39 0 12.836-.66 17.063-1-.172.7-.368 1.414-.594 2.156-1.024.375-1.754 1.227-2.438 2.188-.773 1.086-1.504 2.383-2.281 3.625-.777 1.242-1.61 2.43-2.5 3.25-.89.82-1.766 1.281-2.844 1.281-1.996 0-2.933-.43-3.687-.875-.38-.223-.7-.457-1.125-.688C26.168 33.208 25.62 33 25 33c-.621 0-1.168.207-1.594.438-.426.23-.746.464-1.125.687-.754.445-1.691.875-3.687.875-1.078 0-1.961-.46-2.844-1.281-.883-.82-1.7-1.977-2.469-3.219-.77-1.242-1.5-2.566-2.281-3.656-.555-.778-1.148-1.496-1.906-1.938a1 1 0 00-.813-.437 36.086 36.086 0 01-.594-2zM15 26.094c0 3 1.992 4.906 3.594 4.906C20.195 31 22 29.7 22 28.5c0 0-2.102-1.707-7-2.406zm20 0c-4.898.699-7 2.406-7 2.406 0 1.2 1.805 2.5 3.406 2.5C33.008 31 35 29.094 35 26.094zm6.938.531C42.554 27 43 27.52 43 28.813c0 .714-.336 1.703-.906 2.468-.57.766-1.332 1.25-2 1.313l-.594.062-.219.563c-1.48 3.554-3.375 7.308-5.75 10.125C31.156 46.16 28.387 48 25 48c-3.387 0-6.156-1.84-8.531-4.656-2.375-2.817-4.27-6.57-5.75-10.125l-.219-.563-.594-.062c-.668-.063-1.43-.547-2-1.313-.57-.765-.906-1.754-.906-2.468 0-.758.191-1.208.469-1.563.172-.219.398-.398.656-.563.355.247.781.688 1.25 1.344.676.946 1.383 2.203 2.188 3.5.804 1.297 1.722 2.617 2.843 3.657C15.527 36.227 16.922 37 18.594 37c2.304 0 3.742-.57 4.687-1.125.473-.277.832-.543 1.094-.688.262-.144.395-.187.625-.187.23 0 .363.043.625.188.262.144.621.41 1.094.687.945.555 2.383 1.125 4.687 1.125 1.672 0 3.09-.773 4.219-1.813 1.129-1.039 2.031-2.359 2.844-3.656.812-1.297 1.511-2.582 2.187-3.531.485-.68.93-1.145 1.282-1.375z"/></svg>