<svg xmlns="http://www.w3.org/2000/svg" viewBox="0 0 526.56 91.34"><path fill="#fdb515" d="M104.34 26.18h10.54l8.43 27.24h.16l7.87-27.24h10.54l8.43 27.24h.16l8.1-27.24h9.81l-13.2 38.91h-9.66l-9.24-26.59h-.16l-8.19 26.59h-10.05zM177.05 49a10.06 10.06 0 0010.45 9.24A12.8 12.8 0 00198 53l7 5.27a20.27 20.27 0 01-16.46 7.78c-11.75 0-21.15-8.18-21.15-20.43s9.4-20.43 21.15-20.43c10.87 0 18.24 7.62 18.24 21.16V49zM197 41.74c-.08-5.67-3.82-9.24-9.89-9.24-5.76 0-9.33 3.65-10 9.24zM234 37a8.85 8.85 0 00-7.62-4c-2.6 0-5.67 1.21-5.67 4.13 0 7 21 1.3 21 16.46 0 9.24-8.84 12.48-16.78 12.48-6 0-11.19-1.54-15.16-6L216.2 54c2.52 2.76 5.11 4.79 9.24 4.79 2.84 0 6.49-1.38 6.49-4.46 0-8-21-1.71-21-16.54 0-8.68 7.78-12.57 15.64-12.57 5.19 0 10.7 1.63 13.86 5.92zm9-2.55v-8.27h8V14.91h9.72v11.27h10.7v8.27h-10.7v17c0 3.89 1.14 6.32 5.43 6.32 1.7 0 4.06-.32 5.27-1.21v8.19c-2 1-5.43 1.29-7.7 1.29-10.29 0-12.72-4.62-12.72-13.78V34.45z"/><path fill="#002a4e" d="M277.92 26.25h12.91l8.92 25.27h.11l9-25.27h12.85V65h-8.54V35.27h-.1L302.87 65h-6.51l-9.79-29.72h-.12V65h-8.53zm70.47-.99c12.1 0 20.9 7.94 20.9 20.35S360.49 66 348.39 66s-20.9-7.94-20.9-20.36 8.81-20.38 20.9-20.38zm0 32.83c7.28 0 12-5.26 12-12.48s-4.76-12.47-12-12.47-12 5.25-12 12.47 4.73 12.48 12 12.48zm26.7-31.84h11.6l16.47 26.91h.11V26.25h8.54V65h-11.16l-16.91-27.59h-.11V65h-8.54zm43.17 0h15c7.93 0 14.6 2.73 14.6 11.76 0 5.42-2.89 9.63-8.37 10.62L449.34 65h-10.23L431 49.5h-4.2V65h-8.54zm8.54 16h5c3.12 0 7.17-.1 7.17-4.32 0-3.88-3.5-4.48-6.62-4.48h-5.55zm45.74-16.99c12.09 0 20.91 7.94 20.91 20.35S484.63 66 472.54 66s-20.9-7.94-20.9-20.36 8.81-20.38 20.9-20.38zm0 32.83c7.27 0 12-5.26 12-12.48s-4.77-12.47-12-12.47-12 5.25-12 12.47 4.73 12.48 12 12.48zm26.72-31.84h26.32v7.87h-17.79v7.23h16.8v7.88h-16.8v7.88h18.77V65h-27.3zM13.37 13.37h12.92v12.92H13.37zm0 51.63h12.92v12.92H13.37zm51.72-51.63h12.92v12.92H65.09zm0 51.63h12.92v12.92H65.09z"/><path fill="#fdb515" d="M.002 45.706l9.136-9.136 9.136 9.136-9.136 9.136z"/><path fill="#002a4e" d="M36.503 82.213l9.138-9.134 9.134 9.137-9.138 9.134zm.071-73.077L45.71-.001l9.137 9.134-9.134 9.137zm36.501 36.512l9.136-9.136 9.135 9.136-9.135 9.136z"/></svg>